<?xml version="1.0" encoding="UTF-8"?>
<svg id="Layer_1" xmlns="http://www.w3.org/2000/svg" version="1.1" viewBox="0 0 363.69 476.85">
  <!-- Generator: Adobe Illustrator 29.4.0, SVG Export Plug-In . SVG Version: 2.1.0 Build 152)  -->
  <defs>
    <style>
      .st0 {
        fill: #ff4f00;
      }

      .st1, .st2 {
        isolation: isolate;
      }

      .st3 {
        fill: #0095da;
      }

      .st4 {
        fill: #295cab;
      }

      .st2 {
        font-family: SamsungSharpSans-Medium, 'Samsung Sharp Sans';
        font-size: 24px;
        font-weight: 500;
      }
    </style>
  </defs>
  <path class="st3" d="M84.56,76.68c-27.73-10.49-56.85-13.98-84.11-10.25v47.54c32.62-4.43,67.57,1.4,100.19,17.01v-31.22c0-10.25-6.3-19.57-16.08-23.07h0Z"/>
  <path class="st4" d="M84.56,307.19c-27.73-10.49-56.85-13.98-84.11-10.25v47.54c32.62-4.43,67.57,1.4,100.19,17.01v-31.22c0-10.25-6.3-19.57-16.08-23.07h0Z"/>
  <path class="st0" d="M344.69,76.68c-27.73-10.49-56.85-13.98-84.11-10.25v47.54c32.62-4.43,67.57,1.4,100.19,17.01v-31.22c0-10.25-6.3-19.57-16.08-23.07h0Z"/>
  <g>
    <path d="M258.86,174.47c0-2.55,2-4.5,4.5-4.5,1.63,0,3.11.89,3.87,2.21l-1.02.62c-.56-1.04-1.56-1.71-2.85-1.71-1.89,0-3.32,1.51-3.32,3.38s1.43,3.36,3.31,3.36c1.43,0,2.42-.74,2.96-1.85l1.04.55c-.77,1.45-2.19,2.44-3.99,2.44-2.55,0-4.5-2.02-4.5-4.5Z"/>
    <path d="M268.98,172.88c.56,0,.89.35.89.86s-.32.86-.89.86-.86-.35-.86-.86.35-.86.86-.86ZM268.98,177.23c.56,0,.89.35.89.86s-.32.86-.89.86-.86-.35-.86-.86.35-.86.86-.86Z"/>
    <path d="M273.05,169.97c1.14,0,2.06.91,2.06,2.06s-.92,2.08-2.06,2.08-2.06-.92-2.06-2.08.92-2.06,2.06-2.06ZM278.52,170.09h1.46l-7.52,8.76h-1.46l7.52-8.76ZM273.05,173.14c.59,0,1.07-.49,1.07-1.1s-.48-1.09-1.07-1.09-1.08.48-1.08,1.09.49,1.1,1.08,1.1ZM277.93,174.84c1.14,0,2.06.92,2.06,2.06s-.92,2.07-2.06,2.07-2.06-.92-2.06-2.07.91-2.06,2.06-2.06ZM277.93,178.01c.59,0,1.07-.49,1.07-1.1s-.48-1.09-1.07-1.09-1.08.48-1.08,1.09.47,1.1,1.08,1.1Z"/>
    <path d="M281.19,176.15v-3.29c0-1.67,1.15-2.89,2.84-2.89s2.85,1.26,2.85,2.88v3.31c0,1.76-1.04,2.81-2.85,2.81s-2.84-1.13-2.84-2.82ZM285.72,176.14v-3.26c0-1.12-.59-1.8-1.68-1.8s-1.7.74-1.7,1.8v3.24c0,1.06.58,1.74,1.68,1.74s1.7-.7,1.7-1.71h0Z"/>
    <path d="M259.11,198.89h1.16l3.11,4.31,3.15-4.23v-.07h1.15v8.76h-1.15v-6.9l-3.18,4.29-3.09-4.23v6.84h-1.15v-8.76h0Z"/>
    <path d="M269.79,201.67c.56,0,.89.35.89.86s-.32.86-.89.86-.86-.35-.86-.86.35-.86.86-.86ZM269.79,206.03c.56,0,.89.35.89.86s-.32.86-.89.86-.86-.35-.86-.86.35-.86.86-.86Z"/>
    <path d="M273.86,198.77c1.14,0,2.06.91,2.06,2.06s-.92,2.08-2.06,2.08-2.06-.92-2.06-2.08.92-2.06,2.06-2.06ZM279.32,198.89h1.46l-7.52,8.76h-1.46l7.52-8.76ZM273.86,201.94c.59,0,1.07-.49,1.07-1.1s-.48-1.09-1.07-1.09-1.08.48-1.08,1.09.49,1.1,1.08,1.1ZM278.74,203.64c1.14,0,2.06.92,2.06,2.06s-.92,2.07-2.06,2.07-2.06-.92-2.06-2.07.91-2.06,2.06-2.06ZM278.74,206.81c.59,0,1.07-.49,1.07-1.1s-.48-1.09-1.07-1.09-1.08.48-1.08,1.09.47,1.1,1.08,1.1Z"/>
    <path d="M281.8,205.13c0-.92.49-1.7,1.21-2.15-.56-.42-.92-1.06-.92-1.83,0-1.39,1.07-2.37,2.54-2.37s2.53.98,2.53,2.37c0,.8-.38,1.42-.95,1.83.72.44,1.2,1.22,1.2,2.15,0,1.52-1.1,2.64-2.81,2.64s-2.81-1.12-2.81-2.64h.01ZM286.29,205.13c0-.88-.66-1.6-1.67-1.6s-1.69.72-1.69,1.6.67,1.58,1.67,1.58,1.69-.72,1.69-1.58ZM286.07,201.15c0-.77-.58-1.38-1.44-1.38s-1.46.61-1.46,1.38.58,1.38,1.44,1.38,1.46-.61,1.46-1.38Z"/>
    <path d="M288.42,206.14l1.08-.65c.34.67.94,1.2,1.88,1.2,1.01,0,1.82-.73,1.82-1.82,0-1.15-.86-1.87-1.83-1.87-.91,0-1.49.46-1.83,1.14l-1.07-.47.67-4.77h4.73v1.09h-3.77l-.37,2.57c.42-.35.98-.61,1.71-.61,1.54,0,2.94.96,2.94,2.93,0,1.73-1.27,2.9-3,2.9-1.44,0-2.47-.68-2.96-1.63h0Z"/>
    <path d="M261.54,232.3l-2.87-4.61h1.28l2.16,3.49,2.16-3.49h1.28l-2.87,4.61v4.15h-1.15v-4.15h0Z"/>
    <path d="M267.21,230.48c.56,0,.89.35.89.86s-.32.86-.89.86-.86-.35-.86-.86.35-.86.86-.86ZM267.21,234.83c.56,0,.89.35.89.86s-.32.86-.89.86-.86-.35-.86-.86.35-.86.86-.86Z"/>
    <path d="M271.28,227.57c1.14,0,2.06.91,2.06,2.06s-.92,2.07-2.06,2.07-2.06-.92-2.06-2.07.92-2.06,2.06-2.06ZM276.74,227.69h1.46l-7.52,8.76h-1.46l7.52-8.76ZM271.28,230.74c.59,0,1.07-.49,1.07-1.1s-.48-1.09-1.07-1.09-1.08.48-1.08,1.09.49,1.1,1.08,1.1ZM276.16,232.44c1.14,0,2.06.92,2.06,2.06s-.92,2.07-2.06,2.07-2.06-.92-2.06-2.07.91-2.06,2.06-2.06ZM276.16,235.61c.59,0,1.07-.49,1.07-1.1s-.48-1.09-1.07-1.09-1.08.48-1.08,1.09.47,1.1,1.08,1.1Z"/>
    <path d="M280.5,236.45v-7.66h-1.43v-1.09h2.58v8.76h-1.15Z"/>
    <path d="M283.29,233.75v-3.29c0-1.67,1.15-2.89,2.84-2.89s2.85,1.26,2.85,2.88v3.31c0,1.76-1.04,2.81-2.85,2.81s-2.84-1.13-2.84-2.82ZM287.82,233.74v-3.26c0-1.12-.59-1.8-1.68-1.8s-1.7.74-1.7,1.8v3.24c0,1.06.58,1.74,1.68,1.74s1.7-.7,1.7-1.71h0Z"/>
    <path d="M290.35,233.75v-3.29c0-1.67,1.15-2.89,2.84-2.89s2.85,1.26,2.85,2.88v3.31c0,1.76-1.04,2.81-2.85,2.81s-2.84-1.13-2.84-2.82ZM294.88,233.74v-3.26c0-1.12-.59-1.8-1.68-1.8s-1.7.74-1.7,1.8v3.24c0,1.06.58,1.74,1.68,1.74s1.7-.7,1.7-1.71h0Z"/>
    <path d="M261.7,260.75l-1.44,1.7v2.79h-1.15v-8.76h1.15v4.44l3.74-4.44h1.43l-2.91,3.47,3.26,5.29h-1.34l-2.73-4.5h0Z"/>
    <path d="M267.36,259.28c.56,0,.89.35.89.86s-.32.86-.89.86-.86-.35-.86-.86.35-.86.86-.86ZM267.36,263.63c.56,0,.89.35.89.86s-.32.86-.89.86-.86-.35-.86-.86.35-.86.86-.86Z"/>
    <path d="M271.43,256.37c1.14,0,2.06.91,2.06,2.06s-.92,2.08-2.06,2.08-2.06-.92-2.06-2.08.92-2.06,2.06-2.06ZM276.9,256.49h1.46l-7.52,8.76h-1.46l7.52-8.76ZM271.43,259.54c.59,0,1.07-.49,1.07-1.1s-.48-1.09-1.07-1.09-1.08.48-1.08,1.09.49,1.1,1.08,1.1ZM276.31,261.24c1.14,0,2.06.92,2.06,2.06s-.92,2.08-2.06,2.08-2.06-.92-2.06-2.08.91-2.06,2.06-2.06ZM276.31,264.41c.59,0,1.07-.49,1.07-1.1s-.48-1.09-1.07-1.09-1.08.48-1.08,1.09.47,1.1,1.08,1.1Z"/>
    <path d="M279.57,262.55v-3.29c0-1.67,1.15-2.89,2.84-2.89s2.85,1.26,2.85,2.88v3.31c0,1.76-1.04,2.81-2.85,2.81s-2.84-1.13-2.84-2.82h0ZM284.1,262.54v-3.26c0-1.12-.59-1.8-1.68-1.8s-1.7.74-1.7,1.8v3.24c0,1.06.58,1.74,1.68,1.74s1.7-.7,1.7-1.72h0Z"/>
  </g>
  <g>
    <path d="M314.85,169.12h2.81c1.81,0,3.05,1.24,3.05,2.83,0,1.16-.73,2.17-1.79,2.61l1.92,3.31h-1.31l-1.73-3.05h-1.81v3.05h-1.14v-8.76h0ZM315.99,170.2v3.56h1.54c1.32,0,2-.95,2-1.81,0-1.04-.7-1.75-1.99-1.75h-1.55Z"/>
    <path d="M322.61,171.91c.56,0,.89.35.89.86s-.32.86-.89.86-.86-.35-.86-.86.35-.86.86-.86ZM322.61,176.26c.56,0,.89.35.89.86s-.32.86-.89.86-.86-.35-.86-.86.35-.86.86-.86Z"/>
    <path d="M324.63,176.75c0-1.42,1.22-2.31,2.37-3.12,1.01-.73,1.96-1.36,1.96-2.21s-.6-1.4-1.61-1.4c-.86,0-1.44.53-1.81,1.29l-1.01-.53c.52-1.06,1.48-1.79,2.82-1.79,1.72,0,2.79,1.09,2.79,2.43s-1.19,2.21-2.31,2.97c-1.03.71-2.02,1.38-2.02,2.34h4.4v1.13h-5.59v-1.13.02Z"/>
    <path d="M331.31,176.37l1.08-.65c.34.67.94,1.2,1.88,1.2,1.01,0,1.82-.73,1.82-1.82,0-1.15-.86-1.87-1.83-1.87-.91,0-1.49.46-1.83,1.14l-1.07-.47.67-4.77h4.73v1.09h-3.77l-.37,2.57c.42-.35.98-.61,1.71-.61,1.54,0,2.94.96,2.94,2.93,0,1.73-1.27,2.9-3,2.9-1.44,0-2.47-.68-2.96-1.63h0Z"/>
    <path d="M338.26,176.37l1.08-.65c.34.67.94,1.2,1.88,1.2,1.01,0,1.82-.73,1.82-1.82,0-1.15-.86-1.87-1.83-1.87-.91,0-1.49.46-1.83,1.14l-1.07-.47.67-4.77h4.73v1.09h-3.77l-.37,2.57c.42-.35.98-.61,1.71-.61,1.54,0,2.94.96,2.94,2.93,0,1.73-1.27,2.9-3,2.9-1.44,0-2.47-.68-2.96-1.63h0Z"/>
    <path d="M314.6,202.3c0-2.49,1.92-4.5,4.55-4.5,1.74,0,3.14.9,3.91,2.24l-1.01.61c-.59-1.09-1.61-1.74-2.9-1.74-1.98,0-3.37,1.54-3.37,3.38s1.4,3.37,3.37,3.37c1.79,0,2.89-1.1,3.14-2.64h-3.29v-1.1h4.5v.41c0,2.4-1.62,4.46-4.35,4.46s-4.55-2.05-4.55-4.5h0Z"/>
    <path d="M325.34,200.71c.56,0,.89.35.89.86s-.32.86-.89.86-.86-.35-.86-.86.35-.86.86-.86ZM325.34,205.06c.56,0,.89.35.89.86s-.32.86-.89.86-.86-.35-.86-.86.35-.86.86-.86Z"/>
    <path d="M331.41,199.04h-4.22v-1.12h5.42v1.01l-3.48,7.75h-1.24l3.51-7.64h0Z"/>
    <path d="M337.23,203.71c-.25.08-.53.12-.8.12-1.59,0-2.89-1.28-2.89-3s1.36-3.02,3.09-3.02,3.09,1.33,3.09,3.01c0,.77-.24,1.55-.66,2.12l-2.46,3.74h-1.38l2-2.97h.01ZM338.58,200.83c0-1.09-.85-1.98-1.94-1.98s-1.96.89-1.96,1.98.89,1.95,1.96,1.95,1.94-.88,1.94-1.95Z"/>
    <path d="M314.85,226.72h3.06c1.69,0,2.79.89,2.79,2.36,0,.8-.35,1.45-1.07,1.82.86.35,1.33,1.07,1.33,2.06,0,1.58-1.14,2.51-2.87,2.51h-3.25v-8.76h.01ZM316,227.78v2.65h1.97c1.06,0,1.57-.56,1.57-1.34s-.59-1.31-1.64-1.31h-1.9ZM316,231.51v2.9h2.1c1.06,0,1.7-.59,1.7-1.45s-.55-1.45-1.75-1.45h-2.05Z"/>
    <path d="M322.82,229.51c.56,0,.89.35.89.86s-.32.86-.89.86-.86-.35-.86-.86.35-.86.86-.86ZM322.82,233.86c.56,0,.89.35.89.86s-.32.86-.89.86-.86-.35-.86-.86.35-.86.86-.86Z"/>
    <path d="M324.9,232.78v-3.29c0-1.67,1.15-2.89,2.84-2.89s2.85,1.26,2.85,2.88v3.31c0,1.76-1.04,2.81-2.85,2.81s-2.84-1.13-2.84-2.82ZM329.43,232.77v-3.26c0-1.12-.59-1.8-1.68-1.8s-1.7.74-1.7,1.8v3.24c0,1.06.58,1.74,1.68,1.74s1.7-.7,1.7-1.71h0Z"/>
    <path d="M320.2,262.13h-2.34v2.15h-1.15v-2.15h-2.12v-1.1h2.12v-2.35h-2.12v-1.12h2.12v-2.04h1.15v2.04h2.34v-2.04h1.18v2.04h2.15v1.12h-2.15v2.35h2.15v1.1h-2.15v2.15h-1.18v-2.15ZM317.86,261.03h2.34v-2.35h-2.34v2.35Z"/>
    <path d="M324.7,255.52h4.95v1.1h-3.8v2.71h3.8v1.1h-3.8v3.84h-1.15v-8.76h0Z"/>
    <path d="M330.99,255.52h4.95v1.1h-3.8v2.71h3.8v1.1h-3.8v3.84h-1.15v-8.76h0Z"/>
    <path d="M341.04,262.27h-3.99v-1.07l3.96-5.67h1.19v5.69h1.28v1.06h-1.28v2.01h-1.15v-2.01h-.01ZM341.04,261.21v-3.9l-2.73,3.9h2.73Z"/>
    <path d="M344.68,255.52h4.95v1.1h-3.8v2.71h3.8v1.1h-3.8v3.84h-1.15v-8.76h0Z"/>
    <path d="M350.94,261.58v-3.29c0-1.67,1.15-2.89,2.84-2.89s2.85,1.26,2.85,2.88v3.31c0,1.76-1.04,2.81-2.85,2.81s-2.84-1.13-2.84-2.82h0ZM355.47,261.57v-3.26c0-1.12-.59-1.8-1.68-1.8s-1.7.74-1.7,1.8v3.24c0,1.06.58,1.74,1.68,1.74s1.7-.7,1.7-1.72h0Z"/>
    <path d="M357.99,261.58v-3.29c0-1.67,1.15-2.89,2.84-2.89s2.85,1.26,2.85,2.88v3.31c0,1.76-1.04,2.81-2.85,2.81s-2.84-1.13-2.84-2.82h0ZM362.52,261.57v-3.26c0-1.12-.59-1.8-1.68-1.8s-1.7.74-1.7,1.8v3.24c0,1.06.58,1.74,1.68,1.74s1.7-.7,1.7-1.72h0Z"/>
  </g>
  <path d="M344.69,312.73c-27.73-10.49-56.85-13.98-84.11-10.25v47.54c32.62-4.43,67.57,1.4,100.19,17.01v-31.22c0-10.25-6.3-19.57-16.08-23.07h0Z"/>
  <g>
    <path d="M261.05,385.94c0-2.55,2-4.5,4.5-4.5,1.63,0,3.11.89,3.87,2.21l-1.02.62c-.56-1.04-1.56-1.71-2.85-1.71-1.89,0-3.32,1.51-3.32,3.38s1.43,3.36,3.31,3.36c1.43,0,2.42-.74,2.96-1.85l1.04.55c-.77,1.45-2.19,2.43-3.99,2.43-2.55,0-4.5-2.01-4.5-4.5h0Z"/>
    <path d="M271.18,384.35c.56,0,.89.35.89.86s-.32.86-.89.86-.86-.35-.86-.86.35-.86.86-.86ZM271.18,388.7c.56,0,.89.35.89.86s-.32.86-.89.86-.86-.35-.86-.86.35-.86.86-.86Z"/>
    <path d="M275.25,381.44c1.14,0,2.06.91,2.06,2.06s-.92,2.08-2.06,2.08-2.06-.92-2.06-2.08.92-2.06,2.06-2.06ZM280.71,381.56h1.46l-7.52,8.75h-1.46l7.52-8.75ZM275.25,384.61c.59,0,1.07-.49,1.07-1.1s-.48-1.09-1.07-1.09-1.08.48-1.08,1.09.49,1.1,1.08,1.1ZM280.13,386.31c1.14,0,2.06.92,2.06,2.06s-.92,2.07-2.06,2.07-2.06-.92-2.06-2.07.91-2.06,2.06-2.06ZM280.13,389.48c.59,0,1.07-.49,1.07-1.1s-.48-1.09-1.07-1.09-1.08.48-1.08,1.09.47,1.1,1.08,1.1Z"/>
    <path d="M287.38,382.68h-4.22v-1.12h5.42v1.01l-3.48,7.75h-1.24l3.51-7.64h0Z"/>
    <path d="M289.59,388.81l1.08-.65c.34.67.94,1.2,1.88,1.2,1.01,0,1.82-.73,1.82-1.82,0-1.15-.86-1.87-1.83-1.87-.91,0-1.49.46-1.83,1.14l-1.07-.47.67-4.77h4.73v1.09h-3.77l-.37,2.57c.42-.35.98-.61,1.71-.61,1.54,0,2.94.96,2.94,2.93,0,1.73-1.27,2.9-3,2.9-1.44,0-2.47-.68-2.96-1.63h0Z"/>
    <path d="M261.3,410.36h1.16l3.11,4.31,3.15-4.23v-.07h1.15v8.75h-1.15v-6.9l-3.18,4.29-3.09-4.23v6.84h-1.15v-8.75h0Z"/>
    <path d="M271.98,413.15c.56,0,.89.35.89.86s-.32.86-.89.86-.86-.35-.86-.86.35-.86.86-.86ZM271.98,417.5c.56,0,.89.35.89.86s-.32.86-.89.86-.86-.35-.86-.86.35-.86.86-.86Z"/>
    <path d="M276.05,410.24c1.14,0,2.06.91,2.06,2.06s-.92,2.08-2.06,2.08-2.06-.92-2.06-2.08.92-2.06,2.06-2.06ZM281.52,410.36h1.46l-7.52,8.75h-1.46l7.52-8.75ZM276.05,413.41c.59,0,1.07-.49,1.07-1.1s-.48-1.09-1.07-1.09-1.08.48-1.08,1.09.49,1.1,1.08,1.1ZM280.93,415.11c1.14,0,2.06.92,2.06,2.06s-.92,2.07-2.06,2.07-2.06-.92-2.06-2.07.91-2.06,2.06-2.06ZM280.93,418.28c.59,0,1.07-.49,1.07-1.1s-.48-1.09-1.07-1.09-1.08.48-1.08,1.09.47,1.1,1.08,1.1Z"/>
    <path d="M288.18,411.48h-4.22v-1.12h5.42v1.01l-3.48,7.75h-1.24l3.51-7.64h0Z"/>
    <path d="M290.55,416.42v-3.29c0-1.67,1.15-2.89,2.84-2.89s2.85,1.26,2.85,2.88v3.31c0,1.76-1.04,2.81-2.85,2.81s-2.84-1.13-2.84-2.82h0ZM295.08,416.41v-3.26c0-1.12-.59-1.8-1.68-1.8s-1.7.74-1.7,1.8v3.24c0,1.06.58,1.74,1.68,1.74s1.7-.7,1.7-1.71h0Z"/>
    <path d="M263.74,443.77l-2.87-4.61h1.28l2.16,3.49,2.16-3.49h1.28l-2.87,4.61v4.15h-1.15v-4.15h0Z"/>
    <path d="M269.4,441.95c.56,0,.89.35.89.86s-.32.86-.89.86-.86-.35-.86-.86.35-.86.86-.86ZM269.4,446.3c.56,0,.89.35.89.86s-.32.86-.89.86-.86-.35-.86-.86.35-.86.86-.86Z"/>
    <path d="M273.47,439.04c1.14,0,2.06.91,2.06,2.06s-.92,2.08-2.06,2.08-2.06-.92-2.06-2.08.92-2.06,2.06-2.06ZM278.94,439.16h1.46l-7.52,8.76h-1.46l7.52-8.76ZM273.47,442.21c.59,0,1.07-.49,1.07-1.1s-.48-1.09-1.07-1.09-1.08.48-1.08,1.09.49,1.1,1.08,1.1ZM278.35,443.91c1.14,0,2.06.92,2.06,2.06s-.92,2.08-2.06,2.08-2.06-.92-2.06-2.08.91-2.06,2.06-2.06ZM278.35,447.08c.59,0,1.07-.49,1.07-1.1s-.48-1.09-1.07-1.09-1.08.48-1.08,1.09.47,1.1,1.08,1.1Z"/>
    <path d="M281.38,445.03c0-.82.25-1.59.67-2.17l2.46-3.69h1.38l-1.99,2.94c.25-.08.53-.12.8-.12,1.59,0,2.89,1.27,2.89,3.03s-1.34,3.02-3.11,3.02-3.11-1.33-3.11-3.01h0ZM286.44,444.99c0-1.08-.89-1.97-1.97-1.97s-1.96.88-1.96,1.97.85,1.99,1.96,1.99,1.97-.89,1.97-1.99Z"/>
    <path d="M288.58,446.41l1.08-.65c.34.67.94,1.2,1.88,1.2,1.01,0,1.82-.73,1.82-1.82,0-1.15-.86-1.87-1.83-1.87-.91,0-1.49.46-1.83,1.14l-1.07-.47.67-4.77h4.73v1.09h-3.77l-.37,2.57c.42-.35.98-.61,1.71-.61,1.54,0,2.94.96,2.94,2.93,0,1.73-1.27,2.9-3,2.9-1.44,0-2.47-.68-2.96-1.63h0Z"/>
    <path d="M263.89,472.22l-1.44,1.7v2.79h-1.15v-8.75h1.15v4.44l3.74-4.44h1.43l-2.91,3.47,3.26,5.29h-1.34l-2.73-4.5h0Z"/>
    <path d="M269.56,470.75c.56,0,.89.35.89.86s-.32.86-.89.86-.86-.35-.86-.86.35-.86.86-.86ZM269.56,475.1c.56,0,.89.35.89.86s-.32.86-.89.86-.86-.35-.86-.86.35-.86.86-.86Z"/>
    <path d="M273.63,467.84c1.14,0,2.06.91,2.06,2.06s-.92,2.08-2.06,2.08-2.06-.92-2.06-2.08.92-2.06,2.06-2.06ZM279.09,467.96h1.46l-7.52,8.75h-1.46l7.52-8.75ZM273.63,471.01c.59,0,1.07-.49,1.07-1.1s-.48-1.09-1.07-1.09-1.08.48-1.08,1.09.49,1.1,1.08,1.1ZM278.51,472.71c1.14,0,2.06.92,2.06,2.06s-.92,2.08-2.06,2.08-2.06-.92-2.06-2.08.91-2.06,2.06-2.06ZM278.51,475.88c.59,0,1.07-.49,1.07-1.1s-.48-1.09-1.07-1.09-1.08.48-1.08,1.09.47,1.1,1.08,1.1Z"/>
    <path d="M282.85,476.72v-7.66h-1.43v-1.09h2.58v8.75h-1.15Z"/>
    <path d="M285.64,474.02v-3.29c0-1.67,1.15-2.89,2.84-2.89s2.85,1.26,2.85,2.88v3.31c0,1.76-1.04,2.81-2.85,2.81s-2.84-1.13-2.84-2.82h0ZM290.17,474.01v-3.26c0-1.12-.59-1.8-1.68-1.8s-1.7.74-1.7,1.8v3.24c0,1.06.58,1.74,1.68,1.74s1.7-.7,1.7-1.72h0Z"/>
    <path d="M292.69,474.02v-3.29c0-1.67,1.15-2.89,2.84-2.89s2.85,1.26,2.85,2.88v3.31c0,1.76-1.04,2.81-2.85,2.81s-2.84-1.13-2.84-2.82h0ZM297.23,474.01v-3.26c0-1.12-.59-1.8-1.68-1.8s-1.7.74-1.7,1.8v3.24c0,1.06.58,1.74,1.68,1.74s1.7-.7,1.7-1.72h0Z"/>
  </g>
  <g>
    <path d="M319.5,381.08h2.81c1.81,0,3.05,1.24,3.05,2.83,0,1.16-.73,2.17-1.79,2.61l1.92,3.31h-1.31l-1.73-3.05h-1.81v3.05h-1.14v-8.76h0ZM320.64,382.16v3.56h1.54c1.32,0,2-.95,2-1.81,0-1.04-.7-1.75-1.99-1.75h-1.55Z"/>
    <path d="M327.26,383.86c.56,0,.89.35.89.86s-.32.86-.89.86-.86-.35-.86-.86.35-.86.86-.86ZM327.26,388.22c.56,0,.89.35.89.86s-.32.86-.89.86-.86-.35-.86-.86.35-.86.86-.86Z"/>
    <path d="M329.34,387.14v-3.29c0-1.67,1.15-2.89,2.84-2.89s2.85,1.26,2.85,2.88v3.31c0,1.76-1.04,2.81-2.85,2.81s-2.84-1.13-2.84-2.82h0ZM333.87,387.13v-3.26c0-1.12-.59-1.8-1.68-1.8s-1.7.74-1.7,1.8v3.24c0,1.05.58,1.74,1.68,1.74s1.7-.7,1.7-1.71h0Z"/>
    <path d="M319.24,414.26c0-2.49,1.92-4.5,4.55-4.5,1.74,0,3.14.9,3.91,2.24l-1.01.61c-.59-1.09-1.61-1.74-2.9-1.74-1.98,0-3.37,1.54-3.37,3.38s1.4,3.37,3.37,3.37c1.79,0,2.89-1.1,3.14-2.64h-3.29v-1.1h4.5v.41c0,2.4-1.62,4.46-4.35,4.46s-4.55-2.05-4.55-4.5h0Z"/>
    <path d="M329.98,412.66c.56,0,.89.35.89.86s-.32.86-.89.86-.86-.35-.86-.86.35-.86.86-.86ZM329.98,417.02c.56,0,.89.35.89.86s-.32.86-.89.86-.86-.35-.86-.86.35-.86.86-.86Z"/>
    <path d="M332.06,415.94v-3.29c0-1.67,1.15-2.89,2.84-2.89s2.85,1.26,2.85,2.88v3.31c0,1.76-1.04,2.81-2.85,2.81s-2.84-1.13-2.84-2.82h0ZM336.59,415.92v-3.26c0-1.12-.59-1.8-1.68-1.8s-1.7.74-1.7,1.8v3.24c0,1.05.58,1.74,1.68,1.74s1.7-.7,1.7-1.71h0Z"/>
    <path d="M319.5,438.68h3.06c1.69,0,2.79.89,2.79,2.36,0,.8-.35,1.45-1.07,1.82.86.35,1.33,1.07,1.33,2.06,0,1.58-1.14,2.51-2.87,2.51h-3.25v-8.75h.01ZM320.65,439.74v2.65h1.97c1.06,0,1.57-.56,1.57-1.34s-.59-1.31-1.64-1.31h-1.9ZM320.65,443.47v2.9h2.1c1.06,0,1.7-.59,1.7-1.45s-.55-1.45-1.75-1.45h-2.05Z"/>
    <path d="M327.46,441.46c.56,0,.89.35.89.86s-.32.86-.89.86-.86-.35-.86-.86.35-.86.86-.86ZM327.46,445.82c.56,0,.89.35.89.86s-.32.86-.89.86-.86-.35-.86-.86.35-.86.86-.86Z"/>
    <path d="M329.54,444.74v-3.29c0-1.67,1.15-2.89,2.84-2.89s2.85,1.26,2.85,2.88v3.31c0,1.76-1.04,2.81-2.85,2.81s-2.84-1.13-2.84-2.82h0ZM334.07,444.73v-3.26c0-1.12-.59-1.8-1.68-1.8s-1.7.74-1.7,1.8v3.24c0,1.06.58,1.74,1.68,1.74s1.7-.7,1.7-1.71h0Z"/>
    <path d="M324.85,474.09h-2.34v2.15h-1.15v-2.15h-2.12v-1.1h2.12v-2.35h-2.12v-1.12h2.12v-2.04h1.15v2.04h2.34v-2.04h1.18v2.04h2.15v1.12h-2.15v2.35h2.15v1.1h-2.15v2.15h-1.18v-2.15ZM322.51,472.99h2.34v-2.35h-2.34v2.35Z"/>
    <path d="M329.31,473.54v-3.29c0-1.67,1.15-2.89,2.84-2.89s2.85,1.26,2.85,2.88v3.31c0,1.76-1.04,2.81-2.85,2.81s-2.84-1.13-2.84-2.82h0ZM333.85,473.53v-3.26c0-1.12-.59-1.8-1.68-1.8s-1.7.74-1.7,1.8v3.24c0,1.06.58,1.74,1.68,1.74s1.7-.7,1.7-1.72h0Z"/>
    <path d="M336.37,473.54v-3.29c0-1.67,1.15-2.89,2.84-2.89s2.85,1.26,2.85,2.88v3.31c0,1.76-1.04,2.81-2.85,2.81s-2.84-1.13-2.84-2.82h0ZM340.9,473.53v-3.26c0-1.12-.59-1.8-1.68-1.8s-1.7.74-1.7,1.8v3.24c0,1.06.58,1.74,1.68,1.74s1.7-.7,1.7-1.72h0Z"/>
    <path d="M343.42,473.54v-3.29c0-1.67,1.15-2.89,2.84-2.89s2.85,1.26,2.85,2.88v3.31c0,1.76-1.04,2.81-2.85,2.81s-2.84-1.13-2.84-2.82h0ZM347.96,473.53v-3.26c0-1.12-.59-1.8-1.68-1.8s-1.7.74-1.7,1.8v3.24c0,1.06.58,1.74,1.68,1.74s1.7-.7,1.7-1.72h0Z"/>
    <path d="M350.48,473.54v-3.29c0-1.67,1.15-2.89,2.84-2.89s2.85,1.26,2.85,2.88v3.31c0,1.76-1.04,2.81-2.85,2.81s-2.84-1.13-2.84-2.82h0ZM355.01,473.53v-3.26c0-1.12-.59-1.8-1.68-1.8s-1.7.74-1.7,1.8v3.24c0,1.06.58,1.74,1.68,1.74s1.7-.7,1.7-1.72h0Z"/>
    <path d="M357.54,473.54v-3.29c0-1.67,1.15-2.89,2.84-2.89s2.85,1.26,2.85,2.88v3.31c0,1.76-1.04,2.81-2.85,2.81s-2.84-1.13-2.84-2.82h0ZM362.07,473.53v-3.26c0-1.12-.59-1.8-1.68-1.8s-1.7.74-1.7,1.8v3.24c0,1.06.58,1.74,1.68,1.74s1.7-.7,1.7-1.72h0Z"/>
  </g>
  <g>
    <path d="M7.99,385.94c0-2.55,2-4.5,4.5-4.5,1.63,0,3.11.89,3.87,2.21l-1.02.62c-.56-1.04-1.56-1.71-2.85-1.71-1.89,0-3.32,1.51-3.32,3.38s1.43,3.36,3.31,3.36c1.43,0,2.42-.74,2.96-1.85l1.04.55c-.77,1.45-2.19,2.43-3.99,2.43-2.55,0-4.5-2.01-4.5-4.5h0Z"/>
    <path d="M18.11,384.35c.56,0,.89.35.89.86s-.32.86-.89.86-.86-.35-.86-.86.35-.86.86-.86ZM18.11,388.7c.56,0,.89.35.89.86s-.32.86-.89.86-.86-.35-.86-.86.35-.86.86-.86Z"/>
    <path d="M22.18,381.44c1.14,0,2.06.91,2.06,2.06s-.92,2.08-2.06,2.08-2.06-.92-2.06-2.08.92-2.06,2.06-2.06ZM27.65,381.56h1.46l-7.52,8.75h-1.46s7.52-8.75,7.52-8.75ZM22.18,384.61c.59,0,1.07-.49,1.07-1.1s-.48-1.09-1.07-1.09-1.08.48-1.08,1.09.49,1.1,1.08,1.1ZM27.06,386.31c1.14,0,2.06.92,2.06,2.06s-.92,2.07-2.06,2.07-2.06-.92-2.06-2.07.91-2.06,2.06-2.06ZM27.06,389.48c.59,0,1.07-.49,1.07-1.1s-.48-1.09-1.07-1.09-1.08.48-1.08,1.09.47,1.1,1.08,1.1Z"/>
    <path d="M33.77,387.34c-.25.08-.53.12-.8.12-1.59,0-2.89-1.28-2.89-3s1.36-3.02,3.09-3.02,3.09,1.33,3.09,3.01c0,.77-.24,1.55-.66,2.12l-2.46,3.74h-1.38l2-2.97h0ZM35.13,384.47c0-1.09-.85-1.98-1.94-1.98s-1.96.89-1.96,1.98.89,1.96,1.96,1.96,1.94-.88,1.94-1.96Z"/>
    <path d="M37.41,387.62v-3.29c0-1.67,1.15-2.89,2.84-2.89s2.85,1.26,2.85,2.88v3.31c0,1.76-1.04,2.81-2.85,2.81s-2.84-1.13-2.84-2.82h0ZM41.94,387.61v-3.26c0-1.12-.59-1.8-1.68-1.8s-1.7.74-1.7,1.8v3.24c0,1.06.58,1.74,1.68,1.74s1.7-.7,1.7-1.71h0Z"/>
    <path d="M8.24,410.36h1.16l3.11,4.31,3.15-4.23v-.07h1.15v8.75h-1.15v-6.9l-3.18,4.29-3.09-4.23v6.84h-1.15v-8.75h0Z"/>
    <path d="M18.92,413.15c.56,0,.89.35.89.86s-.32.86-.89.86-.86-.35-.86-.86.35-.86.86-.86ZM18.92,417.5c.56,0,.89.35.89.86s-.32.86-.89.86-.86-.35-.86-.86.35-.86.86-.86Z"/>
    <path d="M22.98,410.24c1.14,0,2.06.91,2.06,2.06s-.92,2.08-2.06,2.08-2.06-.92-2.06-2.08.92-2.06,2.06-2.06ZM28.45,410.36h1.46l-7.52,8.75h-1.46l7.52-8.75ZM22.98,413.41c.59,0,1.07-.49,1.07-1.1s-.48-1.09-1.07-1.09-1.08.48-1.08,1.09.49,1.1,1.08,1.1ZM27.87,415.11c1.14,0,2.06.92,2.06,2.06s-.92,2.07-2.06,2.07-2.06-.92-2.06-2.07.91-2.06,2.06-2.06ZM27.87,418.28c.59,0,1.07-.49,1.07-1.1s-.48-1.09-1.07-1.09-1.08.48-1.08,1.09.47,1.1,1.08,1.1Z"/>
    <path d="M35.12,411.48h-4.22v-1.12h5.42v1.01l-3.48,7.75h-1.24l3.51-7.64h0Z"/>
    <path d="M37.48,416.42v-3.29c0-1.67,1.15-2.89,2.84-2.89s2.85,1.26,2.85,2.88v3.31c0,1.76-1.04,2.81-2.85,2.81s-2.84-1.13-2.84-2.82h0ZM42.02,416.41v-3.26c0-1.12-.59-1.8-1.68-1.8s-1.7.74-1.7,1.8v3.24c0,1.06.58,1.74,1.68,1.74s1.7-.7,1.7-1.71h0Z"/>
    <path d="M10.67,443.77l-2.87-4.61h1.28l2.16,3.49,2.16-3.49h1.28l-2.87,4.61v4.15h-1.15v-4.15h.01Z"/>
    <path d="M16.34,441.95c.56,0,.89.35.89.86s-.32.86-.89.86-.86-.35-.86-.86.35-.86.86-.86ZM16.34,446.3c.56,0,.89.35.89.86s-.32.86-.89.86-.86-.35-.86-.86.35-.86.86-.86Z"/>
    <path d="M20.4,439.04c1.14,0,2.06.91,2.06,2.06s-.92,2.08-2.06,2.08-2.06-.92-2.06-2.08.92-2.06,2.06-2.06ZM25.87,439.16h1.46l-7.52,8.76h-1.46s7.52-8.76,7.52-8.76ZM20.4,442.21c.59,0,1.07-.49,1.07-1.1s-.48-1.09-1.07-1.09-1.08.48-1.08,1.09.49,1.1,1.08,1.1ZM25.29,443.91c1.14,0,2.06.92,2.06,2.06s-.92,2.08-2.06,2.08-2.06-.92-2.06-2.08.91-2.06,2.06-2.06ZM25.29,447.08c.59,0,1.07-.49,1.07-1.1s-.48-1.09-1.07-1.09-1.08.48-1.08,1.09.47,1.1,1.08,1.1Z"/>
    <path d="M28.54,445.22v-3.29c0-1.67,1.15-2.89,2.84-2.89s2.85,1.26,2.85,2.88v3.31c0,1.76-1.04,2.81-2.85,2.81s-2.84-1.13-2.84-2.82h0ZM33.07,445.21v-3.26c0-1.12-.59-1.8-1.68-1.8s-1.7.74-1.7,1.8v3.24c0,1.05.58,1.74,1.68,1.74s1.7-.7,1.7-1.71h0Z"/>
    <path d="M10.83,472.22l-1.44,1.7v2.79h-1.15v-8.75h1.15v4.44l3.74-4.44h1.43l-2.91,3.47,3.26,5.29h-1.34l-2.73-4.5h-.01Z"/>
    <path d="M16.49,470.75c.56,0,.89.35.89.86s-.32.86-.89.86-.86-.35-.86-.86.35-.86.86-.86ZM16.49,475.1c.56,0,.89.35.89.86s-.32.86-.89.86-.86-.35-.86-.86.35-.86.86-.86Z"/>
    <path d="M20.56,467.84c1.14,0,2.06.91,2.06,2.06s-.92,2.08-2.06,2.08-2.06-.92-2.06-2.08.92-2.06,2.06-2.06ZM26.03,467.96h1.46l-7.52,8.75h-1.46s7.52-8.75,7.52-8.75ZM20.56,471.01c.59,0,1.07-.49,1.07-1.1s-.48-1.09-1.07-1.09-1.08.48-1.08,1.09.49,1.1,1.08,1.1ZM25.44,472.71c1.14,0,2.06.92,2.06,2.06s-.92,2.08-2.06,2.08-2.06-.92-2.06-2.08.91-2.06,2.06-2.06ZM25.44,475.88c.59,0,1.07-.49,1.07-1.1s-.48-1.09-1.07-1.09-1.08.48-1.08,1.09.47,1.1,1.08,1.1Z"/>
    <path d="M28.7,474.02v-3.29c0-1.67,1.15-2.89,2.84-2.89s2.85,1.26,2.85,2.88v3.31c0,1.76-1.04,2.81-2.85,2.81s-2.84-1.13-2.84-2.82h0ZM33.23,474.01v-3.26c0-1.12-.59-1.8-1.68-1.8s-1.7.74-1.7,1.8v3.24c0,1.06.58,1.74,1.68,1.74s1.7-.7,1.7-1.72h0Z"/>
  </g>
  <g>
    <path d="M66.43,381.08h2.81c1.81,0,3.05,1.24,3.05,2.83,0,1.16-.73,2.17-1.79,2.61l1.92,3.31h-1.31l-1.73-3.05h-1.81v3.05h-1.14v-8.76h0ZM67.57,382.16v3.56h1.54c1.32,0,2-.95,2-1.81,0-1.04-.7-1.75-1.99-1.75h-1.55Z"/>
    <path d="M74.2,383.86c.56,0,.89.35.89.86s-.32.86-.89.86-.86-.35-.86-.86.35-.86.86-.86ZM74.2,388.22c.56,0,.89.35.89.86s-.32.86-.89.86-.86-.35-.86-.86.35-.86.86-.86Z"/>
    <path d="M80.07,387.82h-3.99v-1.07l3.96-5.67h1.19v5.69h1.28v1.06h-1.28v2.01h-1.15v-2.01h-.01ZM80.07,386.77v-3.9l-2.73,3.9h2.73Z"/>
    <path d="M84.77,389.84v-7.66h-1.43v-1.09h2.58v8.76h-1.15Z"/>
    <path d="M66.18,414.26c0-2.49,1.92-4.5,4.55-4.5,1.74,0,3.14.9,3.91,2.24l-1.01.61c-.59-1.09-1.61-1.74-2.9-1.74-1.98,0-3.37,1.54-3.37,3.38s1.4,3.37,3.37,3.37c1.79,0,2.89-1.1,3.14-2.64h-3.29v-1.1h4.5v.41c0,2.4-1.62,4.46-4.35,4.46s-4.55-2.05-4.55-4.5h0Z"/>
    <path d="M76.92,412.66c.56,0,.89.35.89.86s-.32.86-.89.86-.86-.35-.86-.86.35-.86.86-.86ZM76.92,417.02c.56,0,.89.35.89.86s-.32.86-.89.86-.86-.35-.86-.86.35-.86.86-.86Z"/>
    <path d="M82.45,415.66c-.25.08-.53.12-.8.12-1.59,0-2.89-1.28-2.89-3s1.36-3.02,3.09-3.02,3.09,1.33,3.09,3.01c0,.77-.24,1.55-.66,2.12l-2.46,3.74h-1.38l2-2.97h.01ZM83.8,412.78c0-1.09-.85-1.98-1.94-1.98s-1.96.89-1.96,1.98.89,1.95,1.96,1.95,1.94-.88,1.94-1.95Z"/>
    <path d="M86.03,417.51c0-1.42,1.22-2.31,2.37-3.12,1.01-.73,1.96-1.36,1.96-2.21s-.6-1.4-1.61-1.4c-.86,0-1.44.53-1.81,1.29l-1.01-.53c.52-1.06,1.48-1.79,2.82-1.79,1.72,0,2.79,1.09,2.79,2.43s-1.19,2.21-2.31,2.97c-1.03.71-2.02,1.38-2.02,2.34h4.4v1.13h-5.59v-1.13.02Z"/>
    <path d="M66.43,438.68h3.06c1.69,0,2.79.89,2.79,2.36,0,.8-.35,1.45-1.07,1.82.86.35,1.33,1.07,1.33,2.06,0,1.58-1.14,2.51-2.87,2.51h-3.25v-8.75h.01ZM67.58,439.74v2.65h1.97c1.06,0,1.57-.56,1.57-1.34s-.59-1.31-1.64-1.31h-1.9ZM67.58,443.47v2.9h2.1c1.06,0,1.7-.59,1.7-1.45s-.55-1.45-1.75-1.45h-2.05,0Z"/>
    <path d="M74.4,441.46c.56,0,.89.35.89.86s-.32.86-.89.86-.86-.35-.86-.86.35-.86.86-.86ZM74.4,445.82c.56,0,.89.35.89.86s-.32.86-.89.86-.86-.35-.86-.86.35-.86.86-.86Z"/>
    <path d="M77.57,447.44v-7.66h-1.43v-1.09h2.58v8.75h-1.15Z"/>
    <path d="M84.35,439.8h-4.22v-1.12h5.42v1.01l-3.48,7.75h-1.24l3.51-7.64h.01Z"/>
    <path d="M87.8,447.44v-7.66h-1.43v-1.09h2.58v8.75h-1.15Z"/>
    <path d="M71.78,474.09h-2.34v2.15h-1.15v-2.15h-2.12v-1.1h2.12v-2.35h-2.12v-1.12h2.12v-2.04h1.15v2.04h2.34v-2.04h1.18v2.04h2.15v1.12h-2.15v2.35h2.15v1.1h-2.15v2.15h-1.18v-2.15ZM69.44,472.99h2.34v-2.35h-2.34v2.35Z"/>
    <path d="M76.19,475.11c0-1.42,1.22-2.32,2.37-3.12,1.01-.73,1.96-1.35,1.96-2.21s-.6-1.4-1.61-1.4c-.86,0-1.44.53-1.81,1.29l-1.01-.53c.52-1.06,1.48-1.79,2.82-1.79,1.72,0,2.79,1.09,2.79,2.43s-1.19,2.21-2.31,2.97c-1.03.71-2.02,1.38-2.02,2.34h4.4v1.13h-5.59v-1.13.02Z"/>
    <path d="M86.48,473.26c-.25.08-.53.12-.8.12-1.59,0-2.89-1.28-2.89-3s1.36-3.02,3.09-3.02,3.09,1.33,3.09,3.01c0,.77-.24,1.55-.66,2.12l-2.46,3.74h-1.38l2-2.97h.01ZM87.84,470.38c0-1.09-.85-1.98-1.94-1.98s-1.96.89-1.96,1.98.89,1.96,1.96,1.96,1.94-.88,1.94-1.96Z"/>
    <path d="M89.96,474.73l1.08-.65c.34.67.94,1.2,1.88,1.2,1.01,0,1.82-.73,1.82-1.82,0-1.15-.86-1.87-1.83-1.87-.91,0-1.49.46-1.83,1.14l-1.07-.47.67-4.77h4.73v1.09h-3.77l-.37,2.57c.42-.35.98-.61,1.71-.61,1.54,0,2.94.96,2.94,2.93,0,1.73-1.27,2.9-3,2.9-1.44,0-2.47-.68-2.96-1.63h0Z"/>
    <path d="M96.88,472.73c0-2.09,1.62-3.66,3.68-3.66,1.54,0,2.77.88,3.29,2.13l-1.02.43c-.42-.95-1.22-1.51-2.28-1.51-1.44,0-2.52,1.15-2.52,2.6s1.08,2.59,2.55,2.59c1.12,0,1.9-.68,2.28-1.6l1.04.46c-.54,1.28-1.71,2.19-3.35,2.19-2.11,0-3.68-1.63-3.68-3.65v.02Z"/>
    <path d="M104.78,472.73c0-2.1,1.58-3.66,3.57-3.66,1,0,2.02.48,2.58,1.31v-1.16h1.13v7.02h-1.13v-1.19c-.28.42-.66.76-1.14.98-.47.23-.95.35-1.44.35-1.97,0-3.57-1.56-3.57-3.65ZM111.02,472.72c0-1.44-1.12-2.6-2.55-2.6s-2.53,1.16-2.53,2.6,1.13,2.6,2.53,2.6,2.55-1.15,2.55-2.6Z"/>
    <path d="M114.72,475.06v1.18h-1.1v-8.88h1.12v3.02c.56-.83,1.57-1.31,2.57-1.31,2,0,3.57,1.56,3.57,3.66s-1.61,3.65-3.56,3.65c-1,0-2.03-.47-2.59-1.32h-.01ZM119.72,472.72c0-1.44-1.1-2.6-2.52-2.6s-2.55,1.16-2.55,2.6,1.08,2.6,2.55,2.6,2.52-1.15,2.52-2.6Z"/>
  </g>
  <g>
    <path d="M.18,173.99c0-2.55,2-4.5,4.5-4.5,1.63,0,3.11.89,3.87,2.21l-1.02.62c-.56-1.04-1.56-1.71-2.85-1.71-1.89,0-3.32,1.51-3.32,3.38s1.43,3.36,3.31,3.36c1.43,0,2.42-.74,2.96-1.85l1.04.55c-.77,1.45-2.19,2.44-3.99,2.44-2.55,0-4.5-2.02-4.5-4.5Z"/>
    <path d="M10.31,172.39c.56,0,.89.35.89.86s-.32.86-.89.86-.86-.35-.86-.86.35-.86.86-.86ZM10.31,176.74c.56,0,.89.35.89.86s-.32.86-.89.86-.86-.35-.86-.86.35-.86.86-.86Z"/>
    <path d="M14.38,169.49c1.14,0,2.06.91,2.06,2.06s-.92,2.08-2.06,2.08-2.06-.92-2.06-2.08.92-2.06,2.06-2.06ZM19.84,169.61h1.46l-7.52,8.76h-1.46s7.52-8.76,7.52-8.76ZM14.38,172.65c.59,0,1.07-.49,1.07-1.1s-.48-1.09-1.07-1.09-1.08.48-1.08,1.09.49,1.1,1.08,1.1ZM19.26,174.36c1.14,0,2.06.92,2.06,2.06s-.92,2.07-2.06,2.07-2.06-.92-2.06-2.07.91-2.06,2.06-2.06ZM19.26,177.52c.59,0,1.07-.49,1.07-1.1s-.48-1.09-1.07-1.09-1.08.48-1.08,1.09.47,1.1,1.08,1.1Z"/>
    <path d="M23.6,178.36v-7.66h-1.43v-1.09h2.58v8.76h-1.15Z"/>
    <path d="M26.39,175.67v-3.29c0-1.67,1.15-2.89,2.84-2.89s2.85,1.26,2.85,2.88v3.31c0,1.76-1.04,2.81-2.85,2.81s-2.84-1.13-2.84-2.82ZM30.92,175.65v-3.26c0-1.12-.59-1.8-1.68-1.8s-1.7.74-1.7,1.8v3.24c0,1.06.58,1.74,1.68,1.74s1.7-.7,1.7-1.71h0Z"/>
    <path d="M33.44,175.67v-3.29c0-1.67,1.15-2.89,2.84-2.89s2.85,1.26,2.85,2.88v3.31c0,1.76-1.04,2.81-2.85,2.81s-2.84-1.13-2.84-2.82ZM37.98,175.65v-3.26c0-1.12-.59-1.8-1.68-1.8s-1.7.74-1.7,1.8v3.24c0,1.06.58,1.74,1.68,1.74s1.7-.7,1.7-1.71h0Z"/>
    <path d="M.43,198.41h1.16l3.11,4.31,3.15-4.23v-.07h1.15v8.76h-1.15v-6.9l-3.18,4.29-3.09-4.23v6.84H.43v-8.76H.43Z"/>
    <path d="M11.11,201.19c.56,0,.89.35.89.86s-.32.86-.89.86-.86-.35-.86-.86.35-.86.86-.86ZM11.11,205.54c.56,0,.89.35.89.86s-.32.86-.89.86-.86-.35-.86-.86.35-.86.86-.86Z"/>
    <path d="M15.18,198.29c1.14,0,2.06.91,2.06,2.06s-.92,2.08-2.06,2.08-2.06-.92-2.06-2.08.92-2.06,2.06-2.06ZM20.65,198.41h1.46l-7.52,8.76h-1.46l7.52-8.76ZM15.18,201.45c.59,0,1.07-.49,1.07-1.1s-.48-1.09-1.07-1.09-1.08.48-1.08,1.09.49,1.1,1.08,1.1ZM20.06,203.16c1.14,0,2.06.92,2.06,2.06s-.92,2.07-2.06,2.07-2.06-.92-2.06-2.07.91-2.06,2.06-2.06ZM20.06,206.32c.59,0,1.07-.49,1.07-1.1s-.48-1.09-1.07-1.09-1.08.48-1.08,1.09.47,1.1,1.08,1.1Z"/>
    <path d="M23.26,206.04c0-1.42,1.22-2.31,2.37-3.12,1.01-.73,1.96-1.36,1.96-2.21s-.6-1.4-1.61-1.4c-.86,0-1.44.53-1.81,1.29l-1.01-.53c.52-1.06,1.48-1.79,2.82-1.79,1.72,0,2.79,1.09,2.79,2.43s-1.19,2.21-2.31,2.97c-1.03.71-2.02,1.38-2.02,2.34h4.4v1.13h-5.59v-1.13.02Z"/>
    <path d="M30.1,204.46v-3.29c0-1.67,1.15-2.89,2.84-2.89s2.85,1.26,2.85,2.88v3.31c0,1.76-1.04,2.81-2.85,2.81s-2.84-1.13-2.84-2.82ZM34.63,204.45v-3.26c0-1.12-.59-1.8-1.68-1.8s-1.7.74-1.7,1.8v3.24c0,1.06.58,1.74,1.68,1.74s1.7-.7,1.7-1.71h0Z"/>
    <path d="M2.87,231.81l-2.87-4.61h1.28l2.16,3.49,2.16-3.49h1.28l-2.87,4.61v4.15h-1.15v-4.15h0Z"/>
    <path d="M8.53,229.99c.56,0,.89.35.89.86s-.32.86-.89.86-.86-.35-.86-.86.35-.86.86-.86ZM8.53,234.34c.56,0,.89.35.89.86s-.32.86-.89.86-.86-.35-.86-.86.35-.86.86-.86Z"/>
    <path d="M12.6,227.09c1.14,0,2.06.91,2.06,2.06s-.92,2.07-2.06,2.07-2.06-.92-2.06-2.07.92-2.06,2.06-2.06ZM18.07,227.21h1.46l-7.52,8.76h-1.46s7.52-8.76,7.52-8.76ZM12.6,230.25c.59,0,1.07-.49,1.07-1.1s-.48-1.09-1.07-1.09-1.08.48-1.08,1.09.49,1.1,1.08,1.1ZM17.48,231.96c1.14,0,2.06.92,2.06,2.06s-.92,2.07-2.06,2.07-2.06-.92-2.06-2.07.91-2.06,2.06-2.06ZM17.48,235.12c.59,0,1.07-.49,1.07-1.1s-.48-1.09-1.07-1.09-1.08.48-1.08,1.09.47,1.1,1.08,1.1Z"/>
    <path d="M20.74,233.27v-3.29c0-1.67,1.15-2.89,2.84-2.89s2.85,1.26,2.85,2.88v3.31c0,1.76-1.04,2.81-2.85,2.81s-2.84-1.13-2.84-2.82ZM25.27,233.25v-3.26c0-1.12-.59-1.8-1.68-1.8s-1.7.74-1.7,1.8v3.24c0,1.06.58,1.74,1.68,1.74s1.7-.7,1.7-1.71h0Z"/>
    <path d="M3.02,260.27l-1.44,1.7v2.79H.43v-8.76h1.15v4.44l3.74-4.44h1.43l-2.91,3.47,3.26,5.29h-1.34l-2.73-4.5h0Z"/>
    <path d="M8.69,258.79c.56,0,.89.35.89.86s-.32.86-.89.86-.86-.35-.86-.86.35-.86.86-.86ZM8.69,263.15c.56,0,.89.35.89.86s-.32.86-.89.86-.86-.35-.86-.86.35-.86.86-.86Z"/>
    <path d="M12.75,255.89c1.14,0,2.06.91,2.06,2.06s-.92,2.08-2.06,2.08-2.06-.92-2.06-2.08.92-2.06,2.06-2.06h0ZM18.22,256.01h1.46l-7.52,8.76h-1.46l7.52-8.76ZM12.75,259.06c.59,0,1.07-.49,1.07-1.1s-.48-1.09-1.07-1.09-1.08.48-1.08,1.09.49,1.1,1.08,1.1ZM17.64,260.76c1.14,0,2.06.92,2.06,2.06s-.92,2.08-2.06,2.08-2.06-.92-2.06-2.08.91-2.06,2.06-2.06ZM17.64,263.92c.59,0,1.07-.49,1.07-1.1s-.48-1.09-1.07-1.09-1.08.48-1.08,1.09.47,1.1,1.08,1.1Z"/>
    <path d="M20.89,262.07v-3.29c0-1.67,1.15-2.89,2.84-2.89s2.85,1.26,2.85,2.88v3.31c0,1.76-1.04,2.81-2.85,2.81s-2.84-1.13-2.84-2.82h0ZM25.42,262.05v-3.26c0-1.12-.59-1.8-1.68-1.8s-1.7.74-1.7,1.8v3.24c0,1.06.58,1.74,1.68,1.74s1.7-.7,1.7-1.72h0Z"/>
  </g>
  <g>
    <path d="M58.63,169.12h2.81c1.81,0,3.05,1.24,3.05,2.83,0,1.16-.73,2.17-1.79,2.61l1.92,3.31h-1.31l-1.73-3.05h-1.81v3.05h-1.14v-8.76h0ZM59.77,170.2v3.56h1.54c1.32,0,2-.95,2-1.81,0-1.04-.7-1.75-1.99-1.75h-1.55Z"/>
    <path d="M66.39,171.91c.56,0,.89.35.89.86s-.32.86-.89.86-.86-.35-.86-.86.35-.86.86-.86ZM66.39,176.26c.56,0,.89.35.89.86s-.32.86-.89.86-.86-.35-.86-.86.35-.86.86-.86Z"/>
    <path d="M68.47,175.18v-3.29c0-1.67,1.15-2.89,2.84-2.89s2.85,1.26,2.85,2.88v3.31c0,1.76-1.04,2.81-2.85,2.81s-2.84-1.13-2.84-2.82ZM73,175.17v-3.26c0-1.12-.59-1.8-1.68-1.8s-1.7.74-1.7,1.8v3.24c0,1.06.58,1.74,1.68,1.74s1.7-.7,1.7-1.71h0Z"/>
    <path d="M58.37,202.3c0-2.49,1.92-4.5,4.55-4.5,1.74,0,3.14.9,3.91,2.24l-1.01.61c-.59-1.09-1.61-1.74-2.9-1.74-1.98,0-3.37,1.54-3.37,3.38s1.4,3.37,3.37,3.37c1.79,0,2.89-1.1,3.14-2.64h-3.29v-1.1h4.5v.41c0,2.4-1.62,4.46-4.35,4.46s-4.55-2.05-4.55-4.5h0Z"/>
    <path d="M69.11,200.71c.56,0,.89.35.89.86s-.32.86-.89.86-.86-.35-.86-.86.35-.86.86-.86ZM69.11,205.06c.56,0,.89.35.89.86s-.32.86-.89.86-.86-.35-.86-.86.35-.86.86-.86Z"/>
    <path d="M72.28,206.68v-7.66h-1.43v-1.09h2.58v8.76h-1.15Z"/>
    <path d="M78.87,204.67h-3.99v-1.07l3.96-5.67h1.19v5.69h1.28v1.06h-1.28v2.01h-1.15v-2.01h-.01ZM78.87,203.61v-3.9l-2.73,3.9h2.73Z"/>
    <path d="M85.92,203.71c-.25.08-.53.12-.8.12-1.59,0-2.89-1.28-2.89-3s1.36-3.02,3.09-3.02,3.09,1.33,3.09,3.01c0,.77-.24,1.55-.66,2.12l-2.46,3.74h-1.38l2-2.97h.01ZM87.28,200.83c0-1.09-.85-1.98-1.94-1.98s-1.96.89-1.96,1.98.89,1.95,1.96,1.95,1.94-.88,1.94-1.95Z"/>
    <path d="M58.63,226.72h3.06c1.69,0,2.79.89,2.79,2.36,0,.8-.35,1.45-1.07,1.82.86.35,1.33,1.07,1.33,2.06,0,1.58-1.14,2.51-2.87,2.51h-3.25v-8.76h0ZM59.78,227.78v2.65h1.97c1.06,0,1.57-.56,1.57-1.34s-.59-1.31-1.64-1.31h-1.9ZM59.78,231.51v2.9h2.1c1.06,0,1.7-.59,1.7-1.45s-.55-1.45-1.75-1.45h-2.05Z"/>
    <path d="M66.59,229.51c.56,0,.89.35.89.86s-.32.86-.89.86-.86-.35-.86-.86.35-.86.86-.86ZM66.59,233.86c.56,0,.89.35.89.86s-.32.86-.89.86-.86-.35-.86-.86.35-.86.86-.86Z"/>
    <path d="M68.61,234.35c0-1.42,1.22-2.31,2.37-3.12,1.01-.73,1.96-1.36,1.96-2.21s-.6-1.4-1.61-1.4c-.86,0-1.44.53-1.81,1.29l-1.01-.53c.52-1.06,1.48-1.79,2.82-1.79,1.72,0,2.79,1.09,2.79,2.43s-1.19,2.21-2.31,2.97c-1.03.71-2.02,1.38-2.02,2.34h4.4v1.13h-5.59v-1.13.02Z"/>
    <path d="M76.54,235.48v-7.66h-1.43v-1.09h2.58v8.76h-1.15Z"/>
    <path d="M79.13,232.96c0-.92.49-1.7,1.21-2.15-.56-.42-.92-1.06-.92-1.83,0-1.39,1.07-2.37,2.54-2.37s2.53.98,2.53,2.37c0,.8-.38,1.42-.95,1.83.72.44,1.2,1.22,1.2,2.15,0,1.52-1.1,2.64-2.81,2.64s-2.81-1.12-2.81-2.64h0ZM83.62,232.96c0-.88-.66-1.6-1.67-1.6s-1.69.72-1.69,1.6.67,1.58,1.67,1.58,1.69-.72,1.69-1.58ZM83.4,228.98c0-.77-.58-1.38-1.44-1.38s-1.46.61-1.46,1.38.58,1.38,1.44,1.38,1.46-.61,1.46-1.38Z"/>
    <path d="M63.97,262.13h-2.34v2.15h-1.15v-2.15h-2.12v-1.1h2.12v-2.35h-2.12v-1.12h2.12v-2.04h1.15v2.04h2.34v-2.04h1.18v2.04h2.15v1.12h-2.15v2.35h2.15v1.1h-2.15v2.15h-1.18v-2.15ZM61.64,261.03h2.34v-2.35h-2.34v2.35Z"/>
    <path d="M68.44,261.58v-3.29c0-1.67,1.15-2.89,2.84-2.89s2.85,1.26,2.85,2.88v3.31c0,1.76-1.04,2.81-2.85,2.81s-2.84-1.13-2.84-2.82h0ZM72.97,261.57v-3.26c0-1.12-.59-1.8-1.68-1.8s-1.7.74-1.7,1.8v3.24c0,1.06.58,1.74,1.68,1.74s1.7-.7,1.7-1.72h0Z"/>
    <path d="M75.5,261.58v-3.29c0-1.67,1.15-2.89,2.84-2.89s2.85,1.26,2.85,2.88v3.31c0,1.76-1.04,2.81-2.85,2.81s-2.84-1.13-2.84-2.82h0ZM80.03,261.57v-3.26c0-1.12-.59-1.8-1.68-1.8s-1.7.74-1.7,1.8v3.24c0,1.06.58,1.74,1.68,1.74s1.7-.7,1.7-1.72h0Z"/>
    <path d="M86.01,261.31c-.25.08-.53.12-.8.12-1.59,0-2.89-1.28-2.89-3s1.36-3.02,3.09-3.02,3.09,1.33,3.09,3.01c0,.77-.24,1.55-.66,2.12l-2.46,3.74h-1.38l2-2.97h.01ZM87.36,258.43c0-1.09-.85-1.98-1.94-1.98s-1.96.89-1.96,1.98.89,1.96,1.96,1.96,1.94-.88,1.94-1.96Z"/>
    <path d="M89.49,262.77l1.08-.65c.34.67.94,1.2,1.88,1.2,1.01,0,1.82-.73,1.82-1.82,0-1.15-.86-1.87-1.83-1.87-.91,0-1.49.46-1.83,1.14l-1.07-.47.67-4.77h4.73v1.09h-3.77l-.37,2.57c.42-.35.98-.61,1.71-.61,1.54,0,2.94.96,2.94,2.93,0,1.73-1.27,2.9-3,2.9-1.44,0-2.47-.68-2.96-1.63h0Z"/>
    <path d="M96.4,260.78c0-2.1,1.58-3.66,3.57-3.66.97,0,2,.47,2.57,1.29v-3.01h1.13v8.88h-1.12v-1.19c-.28.42-.66.76-1.14.98-.47.23-.95.35-1.44.35-1.97,0-3.57-1.56-3.57-3.65h0ZM102.64,260.77c0-1.44-1.12-2.6-2.55-2.6s-2.53,1.16-2.53,2.6,1.13,2.6,2.53,2.6,2.55-1.15,2.55-2.6Z"/>
    <path d="M104.93,260.78c0-2.1,1.58-3.66,3.57-3.66,1,0,2.02.48,2.58,1.31v-1.16h1.13v7.02h-1.13v-1.19c-.28.42-.66.76-1.14.98-.47.23-.95.35-1.44.35-1.97,0-3.57-1.56-3.57-3.65ZM111.17,260.77c0-1.44-1.12-2.6-2.55-2.6s-2.53,1.16-2.53,2.6,1.13,2.6,2.53,2.6,2.55-1.15,2.55-2.6Z"/>
  </g>
  <g class="st1">
    <text class="st2" transform="translate(96.4 29.27)"><tspan x="0" y="0">color palate</tspan></text>
  </g>
</svg>