<?xml version="1.0" encoding="UTF-8"?>
<svg id="Layer_2" xmlns="http://www.w3.org/2000/svg" version="1.1" xmlns:xlink="http://www.w3.org/1999/xlink" viewBox="0 0 1146.8 463.8">
  <!-- Generator: Adobe Illustrator 29.4.0, SVG Export Plug-In . SVG Version: 2.1.0 Build 152)  -->
  <defs>
    <style>
      .st0 {
        fill: url(#linear-gradient2);
      }

      .st1 {
        fill: #fff;
      }

      .st2 {
        fill: url(#linear-gradient1);
      }

      .st3 {
        fill: none;
      }

      .st4 {
        clip-path: url(#clippath-1);
      }

      .st5 {
        fill: #231f20;
      }

      .st6 {
        fill: url(#linear-gradient);
      }

      .st7 {
        clip-path: url(#clippath);
      }
    </style>
    <clipPath id="clippath">
      <path class="st3" d="M419.3,246.2v27.9c19.1-2.5,39.6.9,58.7,10.1v-18.3c0-6-3.7-11.5-9.3-13.6-12.1-4.6-24.7-6.9-36.9-6.9-4.3,0-8.4.3-12.5.8Z"/>
    </clipPath>
    <linearGradient id="linear-gradient" x1="-3662.19" y1="2497.73" x2="-3651.58" y2="2497.73" gradientTransform="translate(20670.49 14077.26) scale(5.53 -5.53)" gradientUnits="userSpaceOnUse">
      <stop offset="0" stop-color="#0f68b1"/>
      <stop offset="1" stop-color="#1f92d0"/>
    </linearGradient>
    <clipPath id="clippath-1">
      <path class="st3" d="M1015.6,84.8v30c20.5-2.9,42.5.8,63,10.7v-19.7c0-6.5-3.9-12.3-10-14.6-12.9-4.9-26.3-7.3-39.3-7.3-4.6,0-9.2.3-13.7.9Z"/>
    </clipPath>
    <linearGradient id="linear-gradient1" x1="-3565.83" y1="2524.28" x2="-3554.44" y2="2524.28" gradientTransform="translate(20718.7 14063.91) scale(5.53 -5.53)" gradientUnits="userSpaceOnUse">
      <stop offset="0" stop-color="#0f68b1"/>
      <stop offset="1" stop-color="#1f92d0"/>
    </linearGradient>
    <linearGradient id="linear-gradient2" x1="646.48" y1="1827.74" x2="963.28" y2="1693.88" gradientTransform="translate(0 -1353.54)" gradientUnits="userSpaceOnUse">
      <stop offset="0" stop-color="#0f68b1"/>
      <stop offset="1" stop-color="#1f92d0"/>
    </linearGradient>
  </defs>
  <g id="Layer_1-2">
    <g>
      <path class="st5" d="M68.1,229.9h22.7c42.6,0,68.1-25.5,68.1-65.3V0h-31.2v164.6c0,22.7-11.4,34.1-36.9,34.1h-22.7c-25.6,0-38-11.4-36.9-34.1l5.7-105H8.5C2.8,124.9,0,159.5,0,170.9c0,36.3,27.8,59,68.1,59"/>
      <rect class="st5" x="604.6" width="31.2" height="170.3"/>
      <rect class="st5" x="366.2" width="31.2" height="170.3"/>
      <path class="st5" d="M505.3,31.2h-63.6l-2.8,31.2h66.4c20.4,0,31.2,8.5,31.2,28.4v22.7c0,19.9-11.3,25.5-31.2,25.5h-8.5c-19.9,0-32.4-5.7-31.2-25.5l1.7-36.9h-29.5l-3.4,36.9c-3.4,36.9,22.7,56.8,62.5,56.8h8.5c39.7,0,62.5-19.9,62.5-56.8v-22.7c-.2-36.9-25.7-59.6-62.6-59.6"/>
      <path class="st5" d="M1084.3,31.2h-131.7l-2.8,31.2h134.5c23.3,0,31.2,8.5,31.2,28.4v22.7c0,19.9-8.5,25.5-31.2,25.5h-79.5c-25.6,0-29.5-5.7-28.4-25.5l1.7-36.9h-29.5l-3.4,36.9c-1,10.2-.2,18.6,2.4,25.5h-25.1c-19.9,0-31.2-8.5-31.2-28.4v-19.8c0-36.9-25.6-59.6-62.5-59.6h-63.6l-2.8,31.2h66.4c20.4,0,31.2,8.5,31.2,28.4v22.7c0,17-5.7,25.5-17,25.5-10.5,0-30.5-4.8-55.9-12.2.9-4.1,1.6-8.6,1.9-13.3l1.7-36.9h-29.5l-3.4,36.9c-1.7,19.9-8.5,25.5-25.6,25.5h-2.8c-17,0-25.5-5.7-25.5-25.5v-53.9h-31.2v105c0,25.5-11.3,34.1-36.9,34.1h-31.2v31.2h31.2c40.7,0,65.8-23.4,68-65.1,7.9,4,17.5,5.5,25.7,5.5h2.8c18.8,0,33.3-6.1,43-17.7,36.3,12.6,59.8,17.7,70.6,17.7,12.1,0,24.3-5.8,32.3-15.2,9.7,9.5,24.2,15.2,44.4,15.2h161.8c39.7,0,62.4-19.9,62.4-56.8v-22.7c0-36.9-22.8-59.6-62.5-59.6"/>
      <path class="st5" d="M329.3,159v-68.2c0-36.9-25.6-59.6-62.5-59.6h-63.6l-2.8,31.2h66.4c20.4,0,31.2,8.5,31.2,28.4v48.3h-42.6c-19.9,0-29.5-5.7-28.4-25.6l1.7-36.9h-29.5l-3.4,36.9c-3.4,36.9,19.9,56.8,56.8,56.8,15.2,0,30.4-.7,45.3-1.7-1.2,22.5-12.6,30.1-36.8,30.1h-65.3v31.2h65.3c42.6,0,68.1-25.5,68.2-70.9"/>
      <rect class="st5" y="350.2" width="29.1" height="113.6"/>
      <g class="st7">
        <rect class="st6" x="419.3" y="245.4" width="58.7" height="38.8"/>
      </g>
      <g class="st4">
        <rect class="st2" x="1015.6" y="83.8" width="63" height="41.7"/>
      </g>
      <path class="st5" d="M174.3,305.3h-29c-11.1,0-19,3.2-26.9,11.1l-2.8,2.8c-9.5-9.3-23.7-13.9-41.6-13.9H0v29h76.6c18.5,0,23.8,7.9,23.8,23.8v77.6h29v-77.6c0-9.1-1.4-17-4-23.8h46.2c21.1,0,29,10.6,29,29v100.3h29v-100.2c.1-34.3-18.3-58.1-55.3-58.1"/>
      <rect class="st5" x="448.9" y="305.3" width="29" height="158.4"/>
      <path class="st5" d="M293.1,389.8v-7.9c0-31.7,18.5-47.5,44.9-47.5h71.3v-29h-71.3c-44.9,0-73.9,29-73.9,76.6v7.9c0,47.5,23.8,73.9,71.3,73.9h79.2v-29h-79.2c-29.1-.1-42.3-13.3-42.3-45"/>
      <path class="st0" d="M594.9,305.3h527.5c13.4,0,24.3,10.9,24.3,24.3v109.9c0,13.4-10.9,24.3-24.3,24.3h-527.5c-13.4,0-24.3-10.9-24.3-24.3v-109.9c0-13.4,10.9-24.3,24.3-24.3Z"/>
      <path class="st1" d="M667.4,392.8v8.5c0,19-8.4,27.5-28.5,27.5h-6.3c-20.1,0-28.5-8.5-28.5-27.5v-58.1h11.6v58.1c0,12.7,4.2,15.8,16.9,15.8h6.3c12.7,0,16.9-3.2,16.9-15.8v-8.5c0-12.7-4.2-15.8-16.9-15.8h-16.9v-11.6h16.9c20.1,0,28.5,8.4,28.5,27.4h0ZM691.7,402.3v-37h-11.6v37c0,18,8.4,26.4,27.5,26.4h30.6v-11.6h-30.6c-11.7,0-15.9-3.2-15.9-14.8h0ZM726.5,410.8h11.6v-45.4h-11.6v45.4ZM920.8,391.8v13.7c0,15.8,8.4,23.2,25.3,23.2h33.8v-11.6h-33.8c-10.6,0-13.7-2.1-13.7-11.6v-.5l38-1c7.8-.2,11.6-3.8,11.6-11.6v-9.1h-11.6v10.1l-38,1v-2.6c0-10.6,4.2-14.8,14.8-14.8h34.8v-11.6h-34.8c-16.9,0-26.4,9.5-26.4,26.4h0ZM1107.6,393.9l-26.4-1.1c-7.4-.2-8.4-2.1-8.4-7.4,0-6.3,3.2-8.5,11.6-8.5h31.7v-11.6h-31.7c-14.8,0-23.2,6.1-23.2,21.1,0,10.6,5.3,16.5,17.9,16.9l29.6,1.1v5.3c0,5.3-3.2,7.4-12.7,7.4h-33.8v11.6h33.8c15.8,0,24.3-6.1,24.3-20.1v-2.1c0-8.4-4.2-12.2-12.7-12.6h0ZM1041.1,393.9l-26.4-1.1c-7.4-.2-8.4-2.1-8.4-7.4,0-6.3,3.2-8.5,11.6-8.5h31.7v-11.6h-31.7c-14.8,0-23.2,6.1-23.2,21.1,0,10.6,5.3,16.5,17.9,16.9l29.6,1.1v5.3c0,5.3-3.2,7.4-12.7,7.4h-33.8v11.6h33.8c15.8,0,24.3-6.1,24.3-20.1v-2.1c0-8.4-4.2-12.2-12.7-12.6h0ZM880.6,365.4h-31.6v11.6h31.7c11.6,0,15.8,3.2,15.8,14.8v37h11.6v-37c0-18-8.5-26.4-27.5-26.4h0ZM797.3,393.9l-26.4-1.1c-7.4-.2-8.4-2.1-8.4-7.4,0-6.3,3.2-8.5,11.6-8.5h31.7v-11.6h-31.8c-14.8,0-23.2,6.1-23.2,21.1,0,10.6,5.3,16.5,18,16.9l29.6,1.1v5.3c0,5.3-3.2,7.4-12.7,7.4h-33.8v11.6h33.8c15.8,0,24.3-6.1,24.3-20.1v-2.1c-.1-8.4-4.3-12.2-12.7-12.6h0ZM822.6,428.7h11.6v-63.3h-11.6v63.3ZM849,428.7h11.6v-45.4h-11.6v45.4ZM822.6,354.8h11.6v-11.6h-11.6v11.6Z"/>
    </g>
  </g>
</svg>