<?xml version="1.0" encoding="utf-8"?>
<!-- Generator: Adobe Illustrator 28.2.0, SVG Export Plug-In . SVG Version: 6.00 Build 0)  -->
<svg version="1.1" id="Layer_2_00000117644582379800907780000012706093470437765306_"
	 xmlns="http://www.w3.org/2000/svg" xmlns:xlink="http://www.w3.org/1999/xlink" x="0px" y="0px" viewBox="0 0 1146.8 463.8"
	 style="enable-background:new 0 0 1146.8 463.8;" xml:space="preserve">
<style type="text/css">
	.st0{fill:#231F20;}
	.st1{clip-path:url(#SVGID_00000180334288150538265510000002417168914738864781_);}
	.st2{fill:url(#SVGID_00000042720790899087931170000000561640856931045034_);}
	.st3{clip-path:url(#SVGID_00000054948627967315935190000011725541863570424968_);}
	.st4{fill:url(#SVGID_00000140729884802984812770000013639379735000356490_);}
	.st5{fill:url(#SVGID_00000052098368024030052950000016010973221697231032_);}
	.st6{fill:#FFFFFF;}
</style>
<g id="Layer_1-2">
	<g>
		<g>
			<g>
				<path class="st0" d="M68.1,229.9h22.7c42.6,0,68.1-25.5,68.1-65.3V0h-31.2v164.6c0,22.7-11.4,34.1-36.9,34.1H68.1
					c-25.6,0-38-11.4-36.9-34.1l5.7-105H8.5C2.8,124.9,0,159.5,0,170.9C0,207.2,27.8,229.9,68.1,229.9"/>
				<rect x="604.6" y="0" class="st0" width="31.2" height="170.3"/>
				<rect x="366.2" y="0" class="st0" width="31.2" height="170.3"/>
				<path class="st0" d="M505.3,31.2h-63.6l-2.8,31.2h66.4c20.4,0,31.2,8.5,31.2,28.4v22.7c0,19.9-11.3,25.5-31.2,25.5h-8.5
					c-19.9,0-32.4-5.7-31.2-25.5l1.7-36.9h-29.5l-3.4,36.9c-3.4,36.9,22.7,56.8,62.5,56.8h8.5c39.7,0,62.5-19.9,62.5-56.8V90.8
					C567.7,53.9,542.2,31.2,505.3,31.2"/>
				<path class="st0" d="M1084.3,31.2H952.6l-2.8,31.2h134.5c23.3,0,31.2,8.5,31.2,28.4v22.7c0,19.9-8.5,25.5-31.2,25.5h-79.5
					c-25.6,0-29.5-5.7-28.4-25.5l1.7-36.9h-29.5l-3.4,36.9c-1,10.2-0.2,18.6,2.4,25.5h-25.1c-19.9,0-31.2-8.5-31.2-28.4V90.8
					c0-36.9-25.6-59.6-62.5-59.6h-63.6l-2.8,31.2h66.4c20.4,0,31.2,8.5,31.2,28.4v22.7c0,17-5.7,25.5-17,25.5
					c-10.5,0-30.5-4.8-55.9-12.2c0.9-4.1,1.6-8.6,1.9-13.3l1.7-36.9h-29.5l-3.4,36.9c-1.7,19.9-8.5,25.5-25.6,25.5h-2.8
					c-17,0-25.5-5.7-25.5-25.5V59.6h-31.2v105c0,25.5-11.3,34.1-36.9,34.1h-31.2v31.2h31.2c40.7,0,65.8-23.4,68-65.1
					c7.9,4,17.5,5.5,25.7,5.5h2.8c18.8,0,33.3-6.1,43-17.7c36.3,12.6,59.8,17.7,70.6,17.7c12.1,0,24.3-5.8,32.3-15.2
					c9.7,9.5,24.2,15.2,44.4,15.2h161.8c39.7,0,62.4-19.9,62.4-56.8V90.8C1146.8,53.9,1124,31.2,1084.3,31.2"/>
				<path class="st0" d="M329.3,159V90.8c0-36.9-25.6-59.6-62.5-59.6h-63.6l-2.8,31.2h66.4c20.4,0,31.2,8.5,31.2,28.4v48.3h-42.6
					c-19.9,0-29.5-5.7-28.4-25.6l1.7-36.9h-29.5l-3.4,36.9c-3.4,36.9,19.9,56.8,56.8,56.8c15.2,0,30.4-0.7,45.3-1.7
					c-1.2,22.5-12.6,30.1-36.8,30.1h-65.3v31.2h65.3C303.7,229.9,329.2,204.4,329.3,159"/>
				<rect x="0" y="350.2" class="st0" width="29.1" height="113.5"/>
				<g>
					<defs>
						<path id="SVGID_1_" d="M419.3,246.2v27.9c19.1-2.5,39.6,0.9,58.7,10.1v-18.3c0-6-3.7-11.5-9.3-13.6
							c-12.1-4.6-24.7-6.9-36.9-6.9C427.5,245.4,423.4,245.7,419.3,246.2"/>
					</defs>
					<clipPath id="SVGID_00000181051438615544109420000003172396399277004974_">
						<use xlink:href="#SVGID_1_"  style="overflow:visible;"/>
					</clipPath>
					<g style="clip-path:url(#SVGID_00000181051438615544109420000003172396399277004974_);">
						
							<linearGradient id="SVGID_00000174600088782585611610000015587047362233931707_" gradientUnits="userSpaceOnUse" x1="-4788.6255" y1="-1447.2927" x2="-4778.0195" y2="-1447.2927" gradientTransform="matrix(5.53 0 0 5.53 26899.3633 8268.3496)">
							<stop  offset="0" style="stop-color:#0F68B1"/>
							<stop  offset="1" style="stop-color:#1F92D0"/>
						</linearGradient>
						
							<rect x="419.3" y="245.4" style="fill:url(#SVGID_00000174600088782585611610000015587047362233931707_);" width="58.7" height="38.8"/>
					</g>
				</g>
				<g>
					<defs>
						<path id="SVGID_00000071523808591025428490000002080477893274211501_" d="M1015.6,84.8v30c20.5-2.9,42.5,0.8,63,10.7v-19.7
							c0-6.5-3.9-12.3-10-14.6c-12.9-4.9-26.3-7.3-39.3-7.3C1024.7,83.9,1020.1,84.2,1015.6,84.8"/>
					</defs>
					<clipPath id="SVGID_00000122723082351512635720000001119624720492767360_">
						<use xlink:href="#SVGID_00000071523808591025428490000002080477893274211501_"  style="overflow:visible;"/>
					</clipPath>
					<g style="clip-path:url(#SVGID_00000122723082351512635720000001119624720492767360_);">
						
							<linearGradient id="SVGID_00000178175506218861854830000000113741674811058310_" gradientUnits="userSpaceOnUse" x1="-4692.2656" y1="-1473.8372" x2="-4680.8657" y2="-1473.8372" gradientTransform="matrix(5.53 0 0 5.53 26947.584 8255)">
							<stop  offset="0" style="stop-color:#0F68B1"/>
							<stop  offset="1" style="stop-color:#1F92D0"/>
						</linearGradient>
						
							<rect x="1015.6" y="83.9" style="fill:url(#SVGID_00000178175506218861854830000000113741674811058310_);" width="63" height="41.7"/>
					</g>
				</g>
				<path class="st0" d="M174.3,305.3h-29c-11.1,0-19,3.2-26.9,11.1l-2.8,2.8c-9.5-9.3-23.7-13.9-41.6-13.9H0v29h76.6
					c18.5,0,23.8,7.9,23.8,23.8v77.6h29v-77.6c0-9.1-1.4-17-4-23.8h46.2c21.1,0,29,10.6,29,29v100.3h29V363.4
					C229.7,329.1,211.3,305.3,174.3,305.3"/>
				<rect x="448.9" y="305.3" class="st0" width="29" height="158.5"/>
				<path class="st0" d="M293.1,389.8v-7.9c0-31.7,18.5-47.5,44.9-47.5h71.3v-29H338c-44.9,0-73.9,29-73.9,76.6v7.9
					c0,47.5,23.8,73.9,71.3,73.9h79.2v-29h-79.2C306.3,434.7,293.1,421.5,293.1,389.8"/>
			</g>
			
				<linearGradient id="SVGID_00000034806268223769117560000005507816911585917317_" gradientUnits="userSpaceOnUse" x1="646.4702" y1="65.1897" x2="963.2702" y2="199.0497" gradientTransform="matrix(1 0 0 -1 0 539.36)">
				<stop  offset="0" style="stop-color:#0F68B1"/>
				<stop  offset="1" style="stop-color:#1F92D0"/>
			</linearGradient>
			<path style="fill:url(#SVGID_00000034806268223769117560000005507816911585917317_);" d="M594.9,305.3h527.5
				c13.4,0,24.3,10.9,24.3,24.3v109.9c0,13.4-10.9,24.3-24.3,24.3H594.9c-13.4,0-24.3-10.9-24.3-24.3V329.6
				C570.6,316.2,581.5,305.3,594.9,305.3z"/>
			<path class="st6" d="M1083,411.1h5c-3,10-6,12-14,12h-12v11h12c13,0,19.9-5,25.1-22.1l17.1-56.2h-11.4l-13.3,44.1h-13.2
				l-12.6-44.1h-11.6l12.2,42.1C1069.1,408.1,1073.9,411.1,1083,411.1L1083,411.1z M969.6,373h-11v43.1h11V373z M840.3,416.1h6
				c19,0,27.1-8,27.1-26.1v-55.2h-11V390c0,12-4,15-16,15h-6c-12,0-16-3-16-15v-7c0-12,6-16,16-16h16v-11h-16
				c-17,0-27.1,9-27.1,27.1v7C813.2,408.1,821.2,416.1,840.3,416.1z M622.7,416.1h23.1v-11h-23.1c-6,0-7-2-7-7v-9l36.1-0.9v28h11
				V378c0-14-7-22.1-24.1-22.1h-28.1v11h28.1c10,0,13,2,13,11v0.1l-34.1,0.9c-8,0.2-13,5-13,13v6
				C604.6,409.1,609.6,416.1,622.7,416.1L622.7,416.1z M702.9,416.1H733v-11h-30.1c-11,0-16-5-16-17v-3c0-12,7-18,17-18H731v-11
				h-27.1c-17,0-28.1,11-28.1,29.1v3C675.8,406.1,684.8,416.1,702.9,416.1z M1023.8,367c8,0,11,4,11,11v38.1h11V378
				c0-13-7-22.1-21.1-22.1h-11c-4.2,0-7.2,1.2-10.2,4.2l-1.1,1.1c-3.6-3.5-9-5.3-15.8-5.3h-28.1v11h29.1c7,0,9,3,9,9v29.1h11V376
				c0-3.5-0.5-6.5-1.5-9L1023.8,367L1023.8,367z M886.4,381v13c0,15,8,22.1,24.1,22.1h32.1v-11h-32.1c-10,0-13-2-13-11v-0.5
				l36.1-0.9c7.4-0.2,11-3.6,11-11V373h-11v9.6l-36.1,0.9V381c0-10,4-14,14-14h33.1v-11h-33.1C895.4,355.9,886.4,365,886.4,381
				L886.4,381z M776.1,355.9H748v11h28.1c10,0,13,2,13,11v0.1L755,379c-8,0.2-13,5-13,13v6c0,11,5,18,18,18h23.1v-11h-23.1
				c-6,0-7-2-7-7v-9l36.1-0.9v28h11V378C800.2,364,793.1,355.9,776.1,355.9L776.1,355.9z"/>
		</g>
	</g>
</g>
</svg>
