<?xml version="1.0" encoding="UTF-8"?>
<svg id="Layer_2" xmlns="http://www.w3.org/2000/svg" version="1.1" xmlns:xlink="http://www.w3.org/1999/xlink" viewBox="0 0 322.83 130.56">
  <!-- Generator: Adobe Illustrator 29.4.0, SVG Export Plug-In . SVG Version: 2.1.0 Build 152)  -->
  <defs>
    <style>
      .st0 {
        fill: url(#linear-gradient2);
      }

      .st1 {
        fill: #fff;
      }

      .st2 {
        fill: url(#linear-gradient1);
      }

      .st3 {
        fill: none;
      }

      .st4 {
        clip-path: url(#clippath-1);
      }

      .st5 {
        fill: #231f20;
      }

      .st6 {
        fill: url(#linear-gradient);
      }

      .st7 {
        clip-path: url(#clippath);
      }
    </style>
    <clipPath id="clippath">
      <path class="st3" d="M118.04,69.32v7.85c5.38-.72,11.14.24,16.51,2.84v-5.16c0-1.7-1.04-3.22-2.63-3.82-3.42-1.29-6.95-1.93-10.38-1.93-1.18,0-2.35.08-3.5.23h0Z"/>
    </clipPath>
    <linearGradient id="linear-gradient" x1="-4143.03" y1="2083.09" x2="-4140.04" y2="2083.09" gradientTransform="translate(23028.2 -11444.92) scale(5.53)" gradientUnits="userSpaceOnUse">
      <stop offset="0" stop-color="#0f68b1"/>
      <stop offset="1" stop-color="#1f92d0"/>
    </linearGradient>
    <clipPath id="clippath-1">
      <path class="st3" d="M285.9,23.87v8.44c5.78-.8,11.97.22,17.75,3.02v-5.56c0-1.83-1.09-3.47-2.82-4.11-3.64-1.37-7.4-2.06-11.06-2.06-1.31,0-2.6.09-3.87.27Z"/>
    </clipPath>
    <linearGradient id="linear-gradient1" x1="-4122.16" y1="2077.35" x2="-4118.95" y2="2077.35" gradientTransform="translate(23076.42 -11458.27) scale(5.53)" gradientUnits="userSpaceOnUse">
      <stop offset="0" stop-color="#0f68b1"/>
      <stop offset="1" stop-color="#1f92d0"/>
    </linearGradient>
    <linearGradient id="linear-gradient2" x1="182" y1="-1.49" x2="271.18" y2="36.19" gradientTransform="translate(0 132) scale(1 -1)" gradientUnits="userSpaceOnUse">
      <stop offset="0" stop-color="#0f68b1"/>
      <stop offset="1" stop-color="#1f92d0"/>
    </linearGradient>
  </defs>
  <g id="Layer_1-2">
    <g>
      <path class="st5" d="M19.18,64.73h6.39c11.99,0,19.18-7.19,19.18-18.38V0h-8.79v46.35c0,6.39-3.2,9.59-10.39,9.59h-6.39c-7.2,0-10.71-3.2-10.39-9.59l1.6-29.57H2.4C.8,35.16,0,44.91,0,48.11c0,10.23,7.83,16.62,19.18,16.62"/>
      <rect class="st5" x="170.21" width="8.79" height="47.94"/>
      <rect class="st5" x="103.09" width="8.79" height="47.94"/>
      <path class="st5" d="M142.24,8.79h-17.9l-.8,8.79h18.7c5.75,0,8.79,2.4,8.79,7.99v6.39c0,5.59-3.2,7.19-8.79,7.19h-2.4c-5.59,0-9.11-1.6-8.79-7.19l.48-10.39h-8.31l-.96,10.39c-.96,10.39,6.39,15.98,17.58,15.98h2.4c11.19,0,17.58-5.6,17.58-15.98v-6.39c0-10.39-7.19-16.78-17.58-16.78"/>
      <path class="st5" d="M305.26,8.79h-37.08l-.8,8.79h37.88c6.55,0,8.79,2.4,8.79,7.99v6.39c0,5.59-2.4,7.19-8.79,7.19h-22.38c-7.2,0-8.31-1.6-7.99-7.19l.48-10.39h-8.31l-.96,10.39c-.29,2.88-.05,5.23.68,7.19h-7.07c-5.59,0-8.79-2.4-8.79-7.99v-5.59c0-10.39-7.2-16.78-17.58-16.78h-17.9l-.8,8.79h18.7c5.75,0,8.79,2.4,8.79,7.99v6.39c0,4.79-1.6,7.19-4.8,7.19-2.94,0-8.6-1.36-15.73-3.45.26-1.17.44-2.42.54-3.75l.48-10.39h-8.31l-.96,10.39c-.48,5.59-2.4,7.19-7.2,7.19h-.8c-4.79,0-7.19-1.6-7.19-7.19v-15.18h-8.79v29.57c0,7.19-3.2,9.59-10.39,9.59h-8.79v8.79h8.79c11.46,0,18.53-6.58,19.13-18.32,2.23,1.12,4.94,1.54,7.24,1.54h.8c5.3,0,9.37-1.71,12.1-4.99,10.21,3.55,16.84,4.99,19.87,4.99,3.41,0,6.83-1.62,9.09-4.28,2.74,2.66,6.8,4.28,12.49,4.28h45.55c11.19,0,17.58-5.6,17.58-15.98v-6.39c0-10.39-6.39-16.78-17.58-16.78"/>
      <path class="st5" d="M92.7,44.75v-19.18c0-10.39-7.2-16.78-17.58-16.78h-17.9l-.8,8.79h18.7c5.75,0,8.79,2.4,8.79,7.99v13.58h-11.99c-5.59,0-8.31-1.6-7.99-7.2l.48-10.39h-8.31l-.96,10.39c-.96,10.39,5.59,15.99,15.98,15.99,4.28,0,8.55-.19,12.76-.49-.33,6.33-3.55,8.48-10.36,8.48h-18.38v8.79h18.38c11.98,0,19.18-7.19,19.18-19.98"/>
      <rect class="st5" y="98.58" width="8.18" height="31.97"/>
      <g class="st7">
        <rect class="st6" x="118.04" y="69.09" width="16.51" height="10.92"/>
      </g>
      <g class="st4">
        <rect class="st2" x="285.9" y="23.61" width="17.75" height="11.73"/>
      </g>
      <path class="st5" d="M49.07,85.95h-8.18c-3.12,0-5.35.89-7.58,3.12l-.79.79c-2.68-2.61-6.66-3.91-11.7-3.91H0v8.18h21.56c5.2,0,6.69,2.23,6.69,6.69v21.86h8.18v-21.86c0-2.56-.39-4.79-1.13-6.69h13.02c5.95,0,8.18,2.97,8.18,8.18v28.25h8.18v-28.25c0-9.66-5.2-16.36-15.61-16.36"/>
      <rect class="st5" x="126.38" y="85.95" width="8.18" height="44.61"/>
      <path class="st5" d="M82.52,109.74v-2.23c0-8.92,5.2-13.38,12.64-13.38h20.07v-8.18h-20.07c-12.64,0-20.82,8.18-20.82,21.56v2.23c0,13.38,6.69,20.82,20.07,20.82h22.3v-8.18h-22.3c-8.18,0-11.89-3.71-11.89-12.64"/>
    </g>
    <rect class="st0" x="160.64" y="85.95" width="162.19" height="44.6" rx="6.84" ry="6.84"/>
    <g>
      <path class="st1" d="M193,116.04h-5.94v2.18h5.94c2.18,0,2.97.59,2.97,2.77v6.93h2.18v-6.93c0-3.37-1.59-4.95-5.15-4.95Z"/>
      <rect class="st1" x="187.05" y="119.41" width="2.18" height="8.52"/>
      <path class="st1" d="M206.67,116.04h-5.94v2.18h5.94c2.18,0,2.97.59,2.97,2.77v6.93h2.18v-6.93c0-3.37-1.58-4.95-5.15-4.95Z"/>
      <path class="st1" d="M189.63,94.91v-2.18h-2.58c-3.17,0-4.95,1.58-4.95,4.75v7.13h2.18v-7.13c0-1.98.79-2.58,2.77-2.58h2.58Z"/>
      <rect class="st1" x="200.72" y="119.41" width="2.18" height="8.52"/>
      <path class="st1" d="M277,97.68v6.93h2.18v-6.93c0-3.37-1.58-4.95-5.15-4.95h-2.58v2.18h2.58c2.18,0,2.97.59,2.97,2.77Z"/>
      <path class="st1" d="M208.25,99.86l5.55.2v.99c0,.99-.59,1.39-2.38,1.39h-6.34v2.18h6.34c2.97,0,4.56-1.15,4.56-3.76v-.4c0-1.58-.79-2.3-2.38-2.38l-4.95-.2c-1.39-.04-1.58-.4-1.58-1.39,0-1.19.59-1.58,2.18-1.58h5.94v-2.18h-5.94c-2.77,0-4.36,1.15-4.36,3.96,0,1.98.99,3.09,3.37,3.17h0Z"/>
      <rect class="st1" x="182.1" y="111.88" width="2.18" height="2.18"/>
      <path class="st1" d="M220.93,116.04h-1.19c-3.76,0-5.35,1.59-5.35,5.15v1.59c0,3.57,1.58,5.15,5.35,5.15h1.19c3.76,0,5.35-1.58,5.35-5.15v-1.59c0-3.56-1.59-5.15-5.35-5.15ZM224.1,122.78c0,2.38-.79,2.97-3.17,2.97h-1.19c-2.38,0-3.17-.6-3.17-2.97v-1.59c0-2.38.79-2.97,3.17-2.97h1.19c2.38,0,3.17.6,3.17,2.97v1.59Z"/>
      <path class="st1" d="M223.11,104.62h6.34v-2.18h-6.34c-1.98,0-2.58-.4-2.58-2.18v-.1l7.13-.18c1.47-.04,2.18-.71,2.18-2.18v-1.7h-2.18v1.9l-7.13.18v-.5c0-1.98.79-2.77,2.77-2.77h6.54v-2.18h-6.54c-3.17,0-4.95,1.78-4.95,4.95v2.58c0,2.97,1.59,4.36,4.75,4.36h0Z"/>
      <rect class="st1" x="182.1" y="116.04" width="2.18" height="11.89"/>
      <path class="st1" d="M195.57,104.62h6.34v-2.18h-6.34c-1.98,0-2.58-.4-2.58-2.18v-.1l7.13-.18c1.47-.04,2.18-.71,2.18-2.18v-1.7h-2.18v1.9l-7.13.18v-.5c0-1.98.79-2.77,2.77-2.77h6.54v-2.18h-6.54c-3.17,0-4.95,1.78-4.95,4.95v2.58c0,2.97,1.58,4.36,4.75,4.36h0Z"/>
      <path class="st1" d="M247.68,116.04h-5.55v2.18h5.55c1.98,0,2.58.4,2.58,2.18v.02l-6.74.18c-1.58.04-2.58.99-2.58,2.58v1.19c0,2.18.99,3.57,3.57,3.57h4.56v-2.18h-4.56c-1.19,0-1.39-.4-1.39-1.39v-1.78l7.13-.18v5.53h2.18v-7.53c0-2.77-1.39-4.36-4.75-4.36h0Z"/>
      <path class="st1" d="M277,116.04h-1.19c-3.76,0-5.35,1.59-5.35,5.15v1.59c0,3.57,1.59,5.15,5.35,5.15h1.19c3.77,0,5.35-1.58,5.35-5.15v-1.59c0-3.56-1.58-5.15-5.35-5.15ZM280.17,122.78c0,2.38-.79,2.97-3.17,2.97h-1.19c-2.38,0-3.17-.6-3.17-2.97v-1.59c0-2.38.79-2.97,3.17-2.97h1.19c2.38,0,3.17.6,3.17,2.97v1.59Z"/>
      <rect class="st1" x="284.92" y="119.41" width="2.18" height="8.52"/>
      <rect class="st1" x="268.08" y="88.57" width="2.18" height="16.05"/>
      <path class="st1" d="M289.63,96.98l12.54,7.64v-2.58l-11.09-6.54c-1.78-1.07-1.98-1.39-1.98-2.58v-.4c0-1.39.59-1.98,2.58-1.98h1.39c1.98,0,2.58.59,2.58,1.98v.4c0,.99-.4,1.98-1.59,3.76h2.38c.99-1.58,1.39-2.77,1.39-3.76v-.4c0-2.58-1.59-3.96-4.75-3.96h-1.39c-3.17,0-4.75,1.39-4.75,3.96v.4c0,1.07.27,1.93,1.05,2.76l-.65.41c-1.19.75-1.59,1.58-1.59,2.97v.99c0,2.97,1.59,4.56,5.15,4.56h7.13v-1.98h-7.13c-2.18,0-2.97-.79-2.97-2.58v-1.98l1.73-1.1h-.03Z"/>
      <path class="st1" d="M290.87,116.04h-5.94v2.18h5.94c2.18,0,2.97.59,2.97,2.77v6.93h2.18v-6.93c0-3.37-1.59-4.95-5.15-4.95Z"/>
      <rect class="st1" x="265.71" y="111.88" width="2.18" height="2.18"/>
      <rect class="st1" x="256.74" y="116.04" width="4.47" height="2.18"/>
      <path class="st1" d="M259.96,104.62h5.94v-2.18h-5.94c-2.18,0-3.17-.99-3.17-3.37v-.59c0-2.38,1.39-3.57,3.37-3.57h5.35v-2.18h-5.35c-3.37,0-5.55,2.18-5.55,5.75v.59c0,3.57,1.78,5.55,5.35,5.55h0Z"/>
      <path class="st1" d="M246.29,97.49v7.13h2.18v-7.13c0-1.98.79-2.58,2.77-2.58h2.58v-2.18h-2.58c-3.17,0-4.95,1.58-4.95,4.75h0Z"/>
      <rect class="st1" x="265.71" y="116.04" width="2.18" height="11.89"/>
      <path class="st1" d="M234.4,101.05v-1.78l7.13-.18v5.53h2.18v-7.53c0-2.77-1.39-4.36-4.75-4.36h-5.55v2.18h5.55c1.98,0,2.58.4,2.58,2.18v.02l-6.74.18c-1.58.04-2.58.99-2.58,2.58v1.19c0,2.18.99,3.57,3.57,3.57h4.56v-2.18h-4.56c-1.19,0-1.39-.4-1.39-1.39h0Z"/>
      <path class="st1" d="M234.76,125.75h-1.9l-2.89-9.71h-2.3l2.97,9.91c.48,1.58.99,1.98,2.58,1.98h1.19c1.59,0,2.1-.4,2.58-1.98l2.97-9.91h-2.3l-2.89,9.71h-.01Z"/>
      <path class="st1" d="M257.19,123.57v-11.69h-2.18v11.69c0,2.58,1.39,4.36,4.16,4.36h4.56v-2.18h-4.36c-1.58,0-2.18-.79-2.18-2.18h0Z"/>
    </g>
  </g>
</svg>