<?xml version="1.0" encoding="UTF-8"?>
<svg id="Layer_1" xmlns="http://www.w3.org/2000/svg" version="1.1" xmlns:xlink="http://www.w3.org/1999/xlink" viewBox="0 0 1136 466">
  <!-- Generator: Adobe Illustrator 29.4.0, SVG Export Plug-In . SVG Version: 2.1.0 Build 152)  -->
  <defs>
    <style>
      .st0 {
        fill: #fff;
      }

      .st1 {
        fill: none;
      }

      .st2 {
        fill: #0095da;
      }

      .st3 {
        clip-path: url(#clippath);
      }
    </style>
    <clipPath id="clippath">
      <rect class="st1" width="1136" height="466"/>
    </clipPath>
  </defs>
  <g class="st3">
    <g>
      <path class="st0" d="M67.42,227.64h22.47c42.14,0,67.42-25.29,67.42-64.63V0h-30.89v163.01c0,22.48-11.24,33.73-36.52,33.73h-22.47c-25.28,0-37.63-11.25-36.52-33.73l5.63-103.97H8.43C2.8,123.65,0,157.95,0,169.18c0,35.97,27.53,58.45,67.42,58.45"/>
      <path class="st0" d="M629.22,0h-30.89v168.62h30.89V0Z"/>
      <path class="st0" d="M393.26,0h-30.89v168.62h30.89V0Z"/>
      <path class="st0" d="M500,30.91h-62.93l-2.8,30.91h65.73c20.22,0,30.89,8.43,30.89,28.11v22.48c0,19.68-11.24,25.29-30.89,25.29h-8.43c-19.67,0-32.02-5.63-30.89-25.29l1.68-36.54h-29.22l-3.37,36.54c-3.37,36.52,22.47,56.2,61.8,56.2h8.43c39.32,0,61.8-19.68,61.8-56.2v-22.48c0-36.54-25.28-59.02-61.8-59.02Z"/>
      <path class="st0" d="M1073.04,30.91h-130.35l-2.8,30.91h133.14c23.03,0,30.89,8.43,30.89,28.11v22.48c0,19.68-8.43,25.29-30.89,25.29h-78.66c-25.28,0-29.22-5.63-28.1-25.29l1.67-36.54h-29.22l-3.37,36.54c-1.02,10.11-.19,18.4,2.4,25.29h-24.87c-19.67,0-30.89-8.43-30.89-28.11v-19.68c0-36.54-25.28-59.02-61.8-59.02h-62.93l-2.8,30.91h65.72c20.22,0,30.89,8.43,30.89,28.11v22.48c0,16.86-5.63,25.29-16.85,25.29-10.34,0-30.24-4.77-55.28-12.11.91-4.11,1.54-8.5,1.9-13.17l1.67-36.54h-29.22l-3.37,36.54c-1.68,19.68-8.43,25.29-25.28,25.29h-2.8c-16.85,0-25.28-5.63-25.28-25.29v-53.39h-30.89v103.97c0,25.29-11.24,33.73-36.52,33.73h-30.89v30.91h30.89c40.27,0,65.14-23.13,67.24-64.43,7.86,3.94,17.37,5.41,25.45,5.41h2.8c18.63,0,32.95-6.01,42.53-17.55,35.9,12.51,59.18,17.55,69.83,17.55,12,0,23.99-5.7,31.93-15.07,9.62,9.36,23.92,15.07,43.91,15.07h160.11c39.32,0,61.81-19.68,61.81-56.2v-22.48c0-36.54-22.47-59.02-61.81-59.02"/>
      <path class="st0" d="M325.84,157.38v-67.45c0-36.54-25.28-59.02-61.81-59.02h-62.93l-2.8,30.91h65.72c20.22,0,30.89,8.43,30.89,28.11v47.79h-42.14c-19.67,0-29.22-5.63-28.1-25.29l1.67-36.54h-29.22l-3.37,36.54c-3.37,36.54,19.67,56.22,56.19,56.22,15.02,0,30.06-.66,44.83-1.73-1.14,22.27-12.48,29.82-36.4,29.82h-64.6v30.91h64.6c42.14,0,67.42-25.29,67.42-70.27"/>
      <path class="st0" d="M30.89,345.13H0v120.85h30.89v-120.85Z"/>
      <path class="st2" d="M508.44,255.37v19.51c-20.31-9.78-42.17-13.41-62.48-10.62v-29.68c17.03-2.32,35.12-.15,52.5,6.36,6.04,2.26,9.98,8.05,9.98,14.43v.02Z"/>
      <path class="st2" d="M1067.43,104.72v19.49c-20.31-9.78-42.17-13.41-62.48-10.63v-29.66c17.03-2.32,35.12-.16,52.49,6.36,6.05,2.25,9.99,8.03,9.99,14.43v.02Z"/>
      <path class="st0" d="M185.4,297.36h-30.89c-11.8,0-20.22,3.37-28.65,11.8l-2.97,2.97c-10.14-9.87-25.16-14.79-44.21-14.79H0v30.91h81.46c19.67,0,25.28,8.43,25.28,25.29v82.62h30.89v-82.62c0-9.69-1.47-18.12-4.26-25.29h49.2c22.47,0,30.89,11.25,30.89,30.91v106.79h30.89v-106.79c0-36.54-19.67-61.83-58.99-61.83"/>
      <path class="st0" d="M508.42,297.36h-30.89v168.63h30.89v-168.63Z"/>
      <path class="st0" d="M311.8,387.29v-8.43c0-33.73,19.67-50.59,47.76-50.59h75.84v-30.91h-75.84c-47.76,0-78.66,30.91-78.66,81.5v8.43c0,50.59,25.28,78.7,75.84,78.7h84.27v-30.91h-84.27c-30.89,0-44.93-14.05-44.93-47.79"/>
      <path class="st0" d="M586.65,299.05l9.96,29.87,1.67,6.72h.71l1.74-6.72,9.96-29.87h16.25v45.21h-9.46v-36.61h-.69l-2.11,7.45-9.6,29.16h-12.83l-9.6-29.16-2.09-7.45h-.71v36.61h-9.46v-45.21h16.25Z"/>
      <path class="st0" d="M640.44,315c3.11-2.7,7.55-4.04,13.35-4.04s10.24,1.35,13.32,4.04c3.07,2.68,4.63,6.57,4.63,11.61v2.8c0,4.99-1.54,8.85-4.63,11.54-3.09,2.7-7.51,4.04-13.32,4.04s-10.24-1.35-13.35-4.04c-3.11-2.68-4.66-6.53-4.66-11.54v-2.8c0-5.05,1.55-8.92,4.66-11.61ZM660.15,335.44c1.38-1.26,2.07-3.18,2.07-5.75v-3.44c0-2.52-.69-4.42-2.07-5.68-1.38-1.26-3.51-1.9-6.34-1.9s-5.02.64-6.42,1.9c-1.38,1.26-2.07,3.16-2.07,5.68v3.44c0,2.57.69,4.49,2.07,5.75,1.38,1.26,3.51,1.9,6.42,1.9s4.96-.64,6.34-1.9Z"/>
      <path class="st0" d="M680.78,297.36h9.53v16.12c1.12-.79,2.52-1.42,4.2-1.87s3.47-.67,5.39-.67c10.27,0,15.42,4.98,15.42,14.93v4.13c0,9.95-5.15,14.93-15.42,14.93-2.61,0-4.89-.33-6.79-.98-1.92-.66-3.33-1.61-4.27-2.87l-.55,3.16h-7.5v-46.91l-.02.04ZM698.17,337.61c2.76,0,4.71-.55,5.89-1.68,1.17-1.12,1.74-2.99,1.74-5.62v-4.7c0-2.61-.59-4.49-1.74-5.61-1.17-1.12-3.14-1.68-5.89-1.68-2.57,0-4.53.52-5.85,1.54-1.33,1.02-2,2.54-2,4.56v7.08c0,4.08,2.61,6.1,7.86,6.1Z"/>
      <path class="st0" d="M733.92,305.63h-9.53v-8.28h9.53v8.28ZM733.92,344.27h-9.53v-32.6h9.53v32.6Z"/>
      <path class="st0" d="M754.38,297.36h-9.53v46.91h9.53v-46.91Z"/>
      <path class="st0" d="M767.66,314.89c2.97-2.61,7.22-3.94,12.8-3.94s9.91,1.28,12.8,3.85c2.87,2.57,4.3,6.41,4.3,11.51v4.98h-24.82c.09,2.11.79,3.64,2.11,4.6,1.31.95,3.39,1.45,6.23,1.45,5.13,0,10.09-.35,14.85-1.05l.71,7.15c-5.7,1.02-10.98,1.54-15.84,1.54-5.78,0-10.17-1.28-13.14-3.82-2.97-2.54-4.45-6.25-4.45-11.11v-3.65c0-5.04,1.48-8.88,4.45-11.51ZM788.07,325.62v-.71c0-2.35-.59-4.04-1.78-5.11-1.19-1.07-3.14-1.61-5.85-1.61s-4.8.57-5.96,1.71c-1.17,1.14-1.74,3.04-1.74,5.72h15.35-.02Z"/>
      <path class="st0" d="M598.29,359.87c2.85.67,5.39,1.57,7.63,2.71l-2.66,6.81c-4.3-1.81-8.48-2.75-12.54-2.75s-7.29,1.05-9.24,3.13c-1.97,2.07-2.94,5.36-2.94,9.85v5.2c0,4.4.95,7.64,2.87,9.74,1.92,2.11,4.96,3.16,9.12,3.16,2.06,0,4.37-.28,6.94-.81,2.57-.54,5.09-1.31,7.56-2.35l2.31,6.79c-2.71,1.31-5.63,2.33-8.76,3.04-3.14.72-6.08,1.09-8.82,1.09-6.87,0-12.04-1.78-15.52-5.36-3.49-3.58-5.23-8.79-5.23-15.67v-4.56c0-6.88,1.8-12.09,5.39-15.67,3.61-3.58,8.88-5.36,15.84-5.36,2.52,0,5.21.35,8.06,1.02"/>
      <path class="st0" d="M616.84,375.5c3.11-2.7,7.55-4.04,13.35-4.04s10.24,1.35,13.31,4.04c3.07,2.68,4.63,6.56,4.63,11.61v2.8c0,4.99-1.54,8.85-4.63,11.54-3.09,2.7-7.51,4.04-13.31,4.04s-10.24-1.35-13.35-4.04c-3.11-2.68-4.66-6.53-4.66-11.54v-2.8c0-5.05,1.55-8.92,4.66-11.61ZM636.52,395.94c1.38-1.26,2.07-3.18,2.07-5.75v-3.44c0-2.52-.69-4.42-2.07-5.68-1.38-1.26-3.51-1.9-6.34-1.9s-5.03.64-6.42,1.9c-1.38,1.26-2.07,3.16-2.07,5.68v3.44c0,2.57.69,4.49,2.07,5.75,1.38,1.26,3.51,1.9,6.42,1.9s4.96-.64,6.34-1.9Z"/>
      <path class="st0" d="M657.23,372.17h7.49l.55,3.09c.88-1.18,2.21-2.09,3.97-2.78,1.74-.67,3.73-1.02,5.92-1.02,4.71,0,8.03,1.42,9.95,4.27,1.17-1.42,2.76-2.47,4.77-3.2,2-.73,4.39-1.09,7.15-1.09,4.9,0,8.55,1.16,10.93,3.47,2.38,2.32,3.57,6.05,3.57,11.18v18.66h-9.53v-18.71c0-2.68-.48-4.53-1.47-5.61-.98-1.07-2.57-1.61-4.77-1.61-4.4,0-6.6,2-6.6,6.03v19.92h-9.53v-18.71c0-2.68-.48-4.53-1.47-5.62-.98-1.07-2.57-1.61-4.77-1.61-4.44,0-6.65,2-6.65,6.03v19.92h-9.53v-32.62Z"/>
      <path class="st0" d="M721.78,372.17h7.49l.55,3.09c.88-1.18,2.21-2.09,3.97-2.78,1.74-.67,3.73-1.02,5.92-1.02,4.71,0,8.03,1.42,9.95,4.27,1.17-1.42,2.76-2.47,4.77-3.2,2-.73,4.39-1.09,7.15-1.09,4.91,0,8.55,1.16,10.93,3.47,2.38,2.32,3.57,6.05,3.57,11.18v18.66h-9.53v-18.71c0-2.68-.48-4.53-1.48-5.61-.98-1.07-2.57-1.61-4.77-1.61-4.4,0-6.6,2-6.6,6.03v19.92h-9.53v-18.71c0-2.68-.48-4.53-1.47-5.62-.98-1.07-2.57-1.61-4.77-1.61-4.44,0-6.65,2-6.65,6.03v19.92h-9.53v-32.6l.02-.02Z"/>
      <path class="st0" d="M811.35,404.79l-.55-3.16c-.93,1.26-2.35,2.21-4.2,2.87-1.88.66-4.02.98-6.46.98-4.96,0-8.62-1.24-10.97-3.75-2.37-2.51-3.54-6.22-3.54-11.18v-18.37h9.53v18.71c0,2.57.5,4.42,1.5,5.53,1,1.12,2.75,1.68,5.23,1.68,4.96,0,7.42-2.04,7.42-6.1v-19.85h9.53v32.6h-7.51v.03Z"/>
      <path class="st0" d="M836.58,372.17l.55,3.23c.98-1.26,2.4-2.23,4.23-2.9,1.85-.67,3.99-1.02,6.42-1.02,4.96,0,8.62,1.24,10.97,3.75,2.37,2.5,3.54,6.22,3.54,11.18v18.37h-9.53v-18.66c0-2.61-.5-4.49-1.5-5.6-1.02-1.12-2.75-1.68-5.23-1.68-4.96,0-7.43,2.04-7.43,6.1v19.85h-9.53v-32.6h7.51v-.02Z"/>
      <path class="st0" d="M881.79,366.14h-9.53v-8.28h9.53v8.28ZM881.79,404.79h-9.53v-32.6h9.53v32.6Z"/>
      <path class="st0" d="M920.33,373.22l-1.4,6.95c-3.56-.71-6.96-1.05-10.24-1.05-2.94,0-5.09.64-6.49,1.93-1.38,1.28-2.07,3.21-2.07,5.79v3.37c0,2.57.69,4.49,2.07,5.75,1.38,1.26,3.54,1.9,6.49,1.9,4.11,0,8.12-.45,11.98-1.33l1.05,7.22c-2.05.52-4.33.93-6.82,1.26-2.5.33-4.78.48-6.84.48-5.61,0-9.91-1.35-12.93-4.04-3.01-2.68-4.53-6.53-4.53-11.54v-2.8c0-5.05,1.5-8.92,4.53-11.61,3-2.7,7.32-4.04,12.93-4.04,3.51,0,7.58.59,12.26,1.74"/>
      <path class="st0" d="M950.81,379.15c-.98-.73-2.69-1.09-5.11-1.09-1.92,0-4.16.1-6.72.31-2.57.21-4.82.48-6.72.81l-.71-6.17c2.19-.41,4.66-.78,7.39-1.09,2.75-.31,5.23-.45,7.46-.45,5.28,0,9.15.95,11.64,2.83,2.47,1.9,3.71,4.91,3.71,9.02v21.53h-7.36l-.71-3.78c-1.92,2.94-5.89,4.42-11.92,4.42-4.4,0-7.65-.88-9.77-2.66-2.12-1.78-3.19-4.49-3.19-8.14s1.14-6.31,3.4-7.98c2.26-1.68,5.99-2.52,11.17-2.52h8.91v-.92c0-2-.48-3.37-1.47-4.1M939.67,390.57c-.93.73-1.4,1.97-1.4,3.75s.48,2.89,1.43,3.61c.95.73,2.5,1.09,4.66,1.09,2.43,0,4.35-.5,5.79-1.5,1.42-1,2.14-2.42,2.14-4.23v-3.78h-7.93c-2.19,0-3.77.36-4.7,1.09"/>
      <path class="st0" d="M973.95,372.17v-8.69h9.53v8.69h7.98v7.01h-7.98v14.58c0,1.45.35,2.51,1.02,3.16.67.66,1.67.99,2.97.99h4.01l-.78,7.01h-4.42c-8.22,0-12.33-3.9-12.33-11.71v-14.03h-5.89v-7.01h5.89Z"/>
      <path class="st0" d="M1009.97,366.14h-9.53v-8.28h9.53v8.28ZM1009.97,404.79h-9.53v-32.6h9.53v32.6Z"/>
      <path class="st0" d="M1023.46,375.5c3.11-2.7,7.55-4.04,13.35-4.04s10.24,1.35,13.31,4.04c3.08,2.68,4.63,6.56,4.63,11.61v2.8c0,4.99-1.54,8.85-4.63,11.54-3.09,2.7-7.51,4.04-13.31,4.04s-10.24-1.35-13.35-4.04c-3.11-2.68-4.66-6.53-4.66-11.54v-2.8c0-5.05,1.55-8.92,4.66-11.61ZM1043.15,395.94c1.38-1.26,2.07-3.18,2.07-5.75v-3.44c0-2.52-.69-4.42-2.07-5.68-1.38-1.26-3.51-1.9-6.34-1.9s-5.03.64-6.42,1.9c-1.39,1.26-2.08,3.16-2.08,5.68v3.44c0,2.57.69,4.49,2.08,5.75,1.38,1.26,3.5,1.9,6.42,1.9s4.96-.64,6.34-1.9Z"/>
      <path class="st0" d="M1071.36,372.17l.56,3.23c.98-1.26,2.4-2.23,4.23-2.9,1.84-.67,3.99-1.02,6.42-1.02,4.96,0,8.62,1.24,10.97,3.75,2.36,2.5,3.54,6.22,3.54,11.18v18.37h-9.54v-18.66c0-2.61-.5-4.49-1.5-5.6-1.02-1.12-2.74-1.68-5.23-1.68-4.96,0-7.43,2.04-7.43,6.1v19.85h-9.53v-32.6h7.51v-.02Z"/>
      <path class="st0" d="M1112.27,404.98c-2.78-.33-5.25-.78-7.39-1.33l1.33-6.53c5.29.99,9.84,1.47,13.66,1.47,2.52,0,4.27-.24,5.23-.74.95-.48,1.45-1.35,1.45-2.56,0-.64-.19-1.16-.55-1.5-.38-.35-1.1-.67-2.17-.95-1.08-.28-2.84-.6-5.27-.98-3.7-.6-6.51-1.3-8.45-2.07-1.93-.78-3.29-1.74-4.07-2.94-.78-1.19-1.16-2.8-1.16-4.8,0-7.07,5.06-10.59,15.22-10.59,4.3,0,9.18.61,14.64,1.81l-1.4,6.46c-4.9-.88-9.08-1.33-12.54-1.33-2.43,0-4.11.23-5.04.67-.93.45-1.4,1.21-1.4,2.28,0,.71.19,1.26.52,1.68.35.41,1.05.78,2.11,1.05,1.05.28,2.67.59,4.87.92,3.83.55,6.73,1.21,8.72,1.97,1.98.76,3.38,1.73,4.19,2.94.82,1.21,1.23,2.87,1.23,4.98,0,3.65-1.24,6.32-3.71,8.03-2.47,1.71-6.41,2.56-11.78,2.56-2.71,0-5.46-.16-8.24-.48Z"/>
      <path class="st0" d="M573.66,436.01c3.11-2.7,7.55-4.04,13.35-4.04s10.24,1.35,13.31,4.04c3.07,2.68,4.63,6.57,4.63,11.61v2.8c0,4.99-1.54,8.85-4.63,11.54s-7.51,4.04-13.31,4.04-10.24-1.35-13.35-4.04c-3.11-2.68-4.66-6.53-4.66-11.54v-2.8c0-5.05,1.55-8.92,4.66-11.61ZM593.35,456.45c1.38-1.26,2.07-3.18,2.07-5.75v-3.44c0-2.52-.69-4.42-2.07-5.68-1.38-1.26-3.51-1.9-6.34-1.9s-5.03.64-6.41,1.9c-1.38,1.26-2.07,3.16-2.07,5.68v3.44c0,2.58.69,4.49,2.07,5.75,1.38,1.26,3.51,1.9,6.41,1.9s4.96-.64,6.34-1.9Z"/>
      <path class="st0" d="M619.49,421.67c2.31-2.2,5.85-3.3,10.62-3.3h5.61l-.71,7.29h-3.64c-2.14,0-3.66.41-4.52,1.26-.86.85-1.29,2.35-1.29,4.49v1.33h8.34v6.95h-8.34v25.59h-9.53v-25.59h-5.2v-6.95h5.2v-1.05c0-4.49,1.16-7.83,3.47-10.02Z"/>
      <path class="st0" d="M669.09,420.06h-9.53v45.23h9.53v-45.23Z"/>
      <path class="st0" d="M679.31,432.67h7.49l.71,4.27c1.97-3.32,4.97-4.98,9.05-4.98h4.42l-.71,7.98h-4.35c-2.19,0-3.92.64-5.2,1.93-1.26,1.28-1.9,3.02-1.9,5.23v18.16h-9.53v-32.6h.02Z"/>
      <path class="st0" d="M727.32,439.65c-.98-.73-2.69-1.09-5.11-1.09-1.92,0-4.16.1-6.72.31-2.57.21-4.82.48-6.72.81l-.71-6.17c2.19-.42,4.66-.78,7.39-1.09,2.75-.31,5.23-.45,7.46-.45,5.28,0,9.15.95,11.64,2.83,2.47,1.9,3.71,4.91,3.71,9.02v21.53h-7.36l-.71-3.78c-1.92,2.94-5.89,4.42-11.91,4.42-4.4,0-7.65-.88-9.77-2.66-2.12-1.78-3.2-4.49-3.2-8.14s1.14-6.31,3.4-7.98c2.26-1.68,5.99-2.52,11.17-2.52h8.91v-.92c0-2-.48-3.37-1.47-4.09M716.18,451.09c-.93.73-1.4,1.97-1.4,3.75s.48,2.89,1.43,3.61c.95.72,2.5,1.09,4.66,1.09,2.43,0,4.35-.5,5.78-1.5,1.42-1,2.14-2.42,2.14-4.23v-3.78h-7.93c-2.19,0-3.76.36-4.7,1.09"/>
      <path class="st0" d="M755.76,432.67l.55,3.23c.98-1.26,2.4-2.23,4.23-2.9,1.85-.67,3.99-1.02,6.42-1.02,4.96,0,8.62,1.24,10.97,3.75,2.37,2.51,3.54,6.22,3.54,11.18v18.36h-9.53v-18.66c0-2.61-.5-4.49-1.5-5.6-1.02-1.12-2.75-1.68-5.23-1.68-4.96,0-7.43,2.04-7.43,6.1v19.85h-9.53v-32.6h7.51v-.02Z"/>
    </g>
  </g>
</svg>