<?xml version="1.0" encoding="UTF-8"?>
<svg id="Layer_1" xmlns="http://www.w3.org/2000/svg" version="1.1" viewBox="0 0 266 109">
  <!-- Generator: Adobe Illustrator 29.4.0, SVG Export Plug-In . SVG Version: 2.1.0 Build 152)  -->
  <path d="M16.22,53.23h5.25c9.83,0,15.73-5.9,15.73-15.05V.17h-7.22v38c0,5.25-2.61,7.87-8.51,7.87h-5.25c-5.9,0-8.78-2.61-8.51-7.87l1.32-24.24H2.49c-1.32,15.05-1.97,23.05-1.97,25.66,0,8.37,6.41,13.63,15.73,13.63"/>
  <path d="M147.28.17h-7.22v39.29h7.22V.17Z"/>
  <path d="M92.23.17h-7.22v39.29h7.22V.17Z"/>
  <path d="M117.11,7.36h-14.68l-.64,7.22h15.32c4.71,0,7.22,1.97,7.22,6.54v5.25c0,4.58-2.61,5.9-7.22,5.9h-1.97c-4.58,0-7.46-1.32-7.22-5.9l.41-8.51h-6.81l-.78,8.51c-.78,8.51,5.25,13.09,14.41,13.09h1.97c9.19,0,14.41-4.58,14.41-13.09v-5.25c0-8.51-5.9-13.76-14.41-13.76Z"/>
  <path d="M250.74,7.36h-30.41l-.64,7.22h31.05c5.36,0,7.22,1.97,7.22,6.54v5.25c0,4.58-1.97,5.9-7.22,5.9h-18.34c-5.9,0-6.81-1.32-6.54-5.9l.41-8.51h-6.81l-.78,8.51c-.24,2.37-.03,4.31.54,5.9h-5.8c-4.58,0-7.22-1.97-7.22-6.54v-4.58c0-8.51-5.9-13.76-14.41-13.76h-14.68l-.64,7.22h15.32c4.71,0,7.22,1.97,7.22,6.54v5.25c0,3.93-1.32,5.9-3.93,5.9s-7.05-1.12-12.88-2.81c.2-.95.37-1.97.44-3.09l.41-8.51h-6.81l-.78,8.51c-.41,4.58-1.97,5.9-5.9,5.9h-.64c-3.93,0-5.9-1.32-5.9-5.9v-12.44h-7.22v24.24c0,5.9-2.61,7.87-8.51,7.87h-7.22v7.22h7.22c9.39,0,15.19-5.39,15.69-15.02,1.83.92,4.04,1.25,5.93,1.25h.64c4.34,0,7.7-1.39,9.93-4.1,8.37,2.92,13.8,4.1,16.27,4.1s5.59-1.32,7.46-3.53c2.24,2.17,5.59,3.53,10.24,3.53h37.36c9.19,0,14.41-4.58,14.41-13.09v-5.25c0-8.51-5.26-13.76-14.41-13.76"/>
  <path d="M76.5,36.85v-15.73c0-8.51-5.9-13.76-14.41-13.76h-14.68l-.64,7.22h15.32c4.71,0,7.22,1.97,7.22,6.54v11.15h-9.83c-4.58,0-6.81-1.32-6.54-5.9l.41-8.51h-6.81l-.78,8.51c-.78,8.51,4.58,13.12,13.12,13.12s7.02-.17,10.44-.41c-.27,5.19-2.92,6.95-8.47,6.95h-15.05v7.22h15.05c9.83,0,15.73-5.9,15.73-16.37"/>
  <path d="M7.71,80.62H.49v28.17h7.22v-28.17Z"/>
  <path d="M43.75,69.5h-7.22c-2.75,0-4.71.78-6.68,2.75l-.68.68c-2.37-2.31-5.86-3.46-10.31-3.46H.53v7.22h18.98c4.58,0,5.9,1.97,5.9,5.9v19.26h7.22v-19.26c0-2.27-.34-4.24-.98-5.9h11.46c5.25,0,7.22,2.61,7.22,7.22v24.88h7.22v-24.88c0-8.51-4.58-14.41-13.76-14.41"/>
  <path d="M119.11,69.5h-7.22v39.29h7.22v-39.29Z"/>
  <path d="M73.21,90.45v-1.97c0-7.87,4.58-11.8,11.15-11.8h17.7v-7.22h-17.7c-11.15,0-18.34,7.22-18.34,18.99v1.97c0,11.8,5.9,18.34,17.7,18.34h19.66v-7.22h-19.66c-7.22,0-10.48-3.29-10.48-11.15"/>
  <path d="M137.31,69.88l2.34,6.98.37,1.56h.17l.41-1.56,2.34-6.98h3.8v10.54h-2.24v-8.54h-.14l-.51,1.76-2.24,6.78h-2.98l-2.24-6.78-.51-1.76h-.14v8.54h-2.24v-10.54h3.8Z"/>
  <path d="M149.86,73.6c.71-.64,1.76-.95,3.12-.95s2.37.31,3.12.95c.71.61,1.08,1.53,1.08,2.71v.64c0,1.15-.37,2.07-1.08,2.68-.71.64-1.76.95-3.12.95s-2.37-.31-3.12-.95c-.71-.61-1.08-1.53-1.08-2.68v-.64c0-1.19.37-2.07,1.08-2.71ZM154.47,78.35c.3-.31.47-.75.47-1.36v-.81c0-.58-.17-1.02-.47-1.32-.31-.31-.81-.44-1.49-.44s-1.19.14-1.49.44c-.3.31-.47.75-.47,1.32v.81c0,.61.17,1.05.47,1.36.31.31.81.44,1.49.44s1.15-.14,1.49-.44Z"/>
  <path d="M159.28,69.5h2.24v3.76c.27-.17.58-.34.98-.44.41-.1.81-.17,1.25-.17,2.41,0,3.59,1.15,3.59,3.49v.95c0,2.31-1.19,3.49-3.59,3.49s-1.15-.07-1.59-.24c-.44-.17-.78-.37-.98-.68l-.14.75h-1.76v-10.95.03ZM163.32,78.86c.64,0,1.08-.14,1.36-.41.27-.27.41-.71.41-1.32v-1.08c0-.61-.14-1.05-.41-1.32-.27-.27-.75-.41-1.36-.41s-1.05.14-1.36.37c-.3.24-.47.61-.47,1.05v1.66c0,.95.61,1.42,1.83,1.42"/>
  <path d="M171.65,71.4h-2.24v-1.93h2.24v1.93ZM171.65,80.42h-2.24v-7.59h2.24v7.59Z"/>
  <path d="M176.43,69.5h-2.24v10.95h2.24v-10.95Z"/>
  <path d="M179.52,73.57c.68-.61,1.69-.92,2.98-.92s2.3.31,2.98.88c.68.58,1.02,1.49,1.02,2.68v1.15h-5.8c0,.47.17.85.48,1.08.3.24.78.34,1.46.34,1.19,0,2.34-.07,3.46-.24l.17,1.66c-1.32.24-2.58.37-3.7.37s-2.37-.31-3.05-.88c-.68-.58-1.05-1.46-1.05-2.58v-.85c0-1.19.34-2.07,1.05-2.68M184.3,76.08v-.17c0-.54-.14-.95-.41-1.19-.27-.24-.75-.37-1.36-.37s-1.12.14-1.39.41c-.27.27-.41.71-.41,1.32h3.59-.03Z"/>
  <path d="M140.03,84.05c.68.17,1.25.37,1.8.64l-.61,1.59c-1.02-.44-1.97-.64-2.92-.64s-1.69.24-2.17.71c-.48.47-.68,1.25-.68,2.31v1.22c0,1.02.24,1.8.68,2.27.44.47,1.15.75,2.13.75s1.02-.07,1.63-.2c.61-.14,1.19-.31,1.76-.54l.54,1.59c-.64.31-1.32.54-2.03.71-.75.17-1.42.27-2.07.27-1.59,0-2.81-.41-3.63-1.25-.81-.85-1.22-2.03-1.22-3.66v-1.05c0-1.59.41-2.81,1.25-3.66.85-.85,2.07-1.25,3.7-1.25s1.22.07,1.86.24"/>
  <path d="M144.37,87.71c.71-.64,1.76-.95,3.12-.95s2.37.31,3.12.95c.71.61,1.08,1.53,1.08,2.71v.64c0,1.15-.37,2.07-1.08,2.68-.71.64-1.76.95-3.12.95s-2.37-.31-3.12-.95c-.71-.61-1.09-1.53-1.09-2.68v-.64c0-1.19.37-2.07,1.09-2.71ZM148.94,92.45c.3-.31.47-.75.47-1.36v-.81c0-.58-.17-1.02-.47-1.32-.31-.31-.81-.44-1.49-.44s-1.19.14-1.49.44c-.3.31-.47.75-.47,1.32v.81c0,.61.17,1.05.47,1.36.31.31.81.44,1.49.44s1.15-.14,1.49-.44Z"/>
  <path d="M153.79,86.93h1.76l.14.71c.2-.27.51-.47.91-.64.41-.17.88-.24,1.39-.24,1.09,0,1.86.34,2.31.98.27-.34.64-.58,1.12-.75.47-.17,1.02-.27,1.66-.27,1.15,0,2,.27,2.54.81.54.54.85,1.42.85,2.61v4.34h-2.24v-4.37c0-.61-.1-1.05-.34-1.32-.24-.24-.61-.37-1.12-.37-1.02,0-1.53.47-1.53,1.39v4.64h-2.24v-4.37c0-.61-.1-1.05-.34-1.32-.24-.24-.61-.37-1.12-.37-1.05,0-1.56.47-1.56,1.39v4.64h-2.24v-7.59l.03.1Z"/>
  <path d="M168.84,86.93h1.76l.13.71c.2-.27.51-.47.92-.64.41-.17.88-.24,1.39-.24,1.08,0,1.86.34,2.31.98.27-.34.64-.58,1.12-.75.47-.17,1.02-.27,1.66-.27,1.15,0,2,.27,2.54.81.54.54.85,1.42.85,2.61v4.34h-2.24v-4.37c0-.61-.1-1.05-.34-1.32-.24-.24-.61-.37-1.12-.37-1.02,0-1.53.47-1.53,1.39v4.64h-2.24v-4.37c0-.61-.1-1.05-.34-1.32-.24-.24-.61-.37-1.12-.37-1.05,0-1.56.47-1.56,1.39v4.64h-2.24v-7.59l.03.1Z"/>
  <path d="M189.72,94.52l-.14-.75c-.2.31-.54.51-.98.68-.44.17-.95.24-1.49.24-1.15,0-2-.31-2.54-.88-.54-.58-.81-1.46-.81-2.61v-4.27h2.24v4.37c0,.61.1,1.02.34,1.29.24.27.64.41,1.22.41,1.15,0,1.73-.47,1.73-1.42v-4.61h2.24v7.59h-1.76l-.03-.03Z"/>
  <path d="M195.62,86.93l.14.75c.24-.31.54-.51.98-.68.44-.17.92-.24,1.49-.24,1.15,0,2,.31,2.54.88.54.58.81,1.46.81,2.61v4.27h-2.24v-4.34c0-.61-.1-1.05-.34-1.32-.24-.27-.64-.41-1.22-.41-1.15,0-1.73.47-1.73,1.42v4.61h-2.24v-7.59h1.76l.03.03Z"/>
  <path d="M206.16,85.5h-2.24v-1.93h2.24v1.93ZM206.16,94.52h-2.24v-7.59h2.24v7.59Z"/>
  <path d="M215.15,87.17l-.34,1.63c-.81-.17-1.63-.24-2.37-.24s-1.19.14-1.53.44c-.3.31-.47.75-.47,1.36v.78c0,.61.17,1.05.47,1.36.31.31.81.44,1.53.44s1.9-.1,2.78-.31l.24,1.7c-.47.14-1.02.2-1.59.31-.58.07-1.12.1-1.59.1-1.32,0-2.3-.31-3.02-.95-.71-.61-1.05-1.53-1.05-2.68v-.64c0-1.19.34-2.07,1.05-2.71.71-.64,1.7-.95,3.02-.95s1.76.14,2.85.41"/>
  <path d="M222.23,88.56c-.24-.17-.64-.27-1.19-.27s-.98,0-1.56.07c-.61.03-1.12.1-1.56.2l-.17-1.42c.51-.1,1.08-.17,1.73-.27.64-.07,1.22-.1,1.73-.1,1.22,0,2.14.2,2.71.68.58.47.88,1.15.88,2.1v5.02h-1.73l-.17-.88c-.44.68-1.36,1.02-2.78,1.02s-1.8-.2-2.27-.61c-.51-.41-.75-1.05-.75-1.9s.27-1.46.78-1.86c.51-.41,1.39-.58,2.61-.58h2.07v-.2c0-.47-.1-.78-.34-.95M219.66,91.23c-.2.17-.34.47-.34.88s.1.68.34.85c.24.17.58.27,1.09.27s1.02-.1,1.36-.34c.34-.24.51-.58.51-.98v-.88h-1.83c-.51,0-.88.1-1.09.27"/>
  <path d="M227.66,86.93v-2.03h2.24v2.03h1.86v1.63h-1.86v3.39c0,.34.07.58.24.75.17.17.37.24.68.24h.95l-.17,1.63h-1.02c-1.93,0-2.88-.92-2.88-2.71v-3.25h-1.36v-1.63h1.36l-.03-.03Z"/>
  <path d="M236.03,85.5h-2.24v-1.93h2.24v1.93ZM236.03,94.52h-2.24v-7.59h2.24v7.59Z"/>
  <path d="M239.18,87.71c.71-.64,1.76-.95,3.12-.95s2.37.31,3.12.95c.71.61,1.08,1.53,1.08,2.71v.64c0,1.15-.37,2.07-1.08,2.68-.71.64-1.76.95-3.12.95s-2.37-.31-3.12-.95c-.71-.61-1.08-1.53-1.08-2.68v-.64c0-1.19.37-2.07,1.08-2.71ZM243.79,92.45c.3-.31.47-.75.47-1.36v-.81c0-.58-.17-1.02-.47-1.32-.31-.31-.81-.44-1.49-.44s-1.19.14-1.49.44c-.31.31-.48.75-.48,1.32v.81c0,.61.17,1.05.48,1.36.3.31.81.44,1.49.44s1.15-.14,1.49-.44Z"/>
  <path d="M250.37,86.93l.14.75c.24-.31.54-.51.98-.68s.92-.24,1.49-.24c1.15,0,2,.31,2.54.88.54.58.81,1.46.81,2.61v4.27h-2.24v-4.34c0-.61-.1-1.05-.34-1.32-.24-.27-.64-.41-1.22-.41-1.15,0-1.73.47-1.73,1.42v4.61h-2.24v-7.59h1.76l.03.03Z"/>
  <path d="M259.9,94.59c-.64-.07-1.22-.17-1.73-.31l.31-1.53c1.22.24,2.31.34,3.19.34s.98-.07,1.22-.17c.24-.1.34-.31.34-.61s-.03-.27-.14-.34c-.1-.07-.27-.17-.51-.2-.24-.07-.64-.14-1.22-.24-.85-.14-1.52-.31-1.97-.47-.44-.17-.78-.41-.95-.68-.17-.27-.27-.64-.27-1.12,0-1.66,1.19-2.47,3.56-2.47s2.14.14,3.42.44l-.34,1.49c-1.15-.2-2.14-.31-2.92-.31s-.95.07-1.19.17c-.2.1-.34.27-.34.54s.03.31.14.41c.07.1.24.17.47.24.24.07.61.14,1.15.2.88.14,1.56.27,2.03.47.47.2.78.41.98.68.2.27.27.68.27,1.15,0,.85-.3,1.46-.88,1.86-.58.41-1.49.61-2.75.61s-1.29-.03-1.93-.1"/>
  <path d="M134.3,101.81c.71-.64,1.76-.95,3.12-.95s2.37.31,3.12.95c.71.61,1.09,1.53,1.09,2.71v.64c0,1.15-.37,2.07-1.09,2.68-.71.64-1.76.95-3.12.95s-2.37-.31-3.12-.95c-.71-.61-1.08-1.53-1.08-2.68v-.64c0-1.19.37-2.07,1.08-2.71ZM138.87,106.56c.3-.31.48-.75.48-1.36v-.81c0-.58-.17-1.02-.48-1.32-.31-.31-.81-.44-1.49-.44s-1.19.14-1.49.44c-.3.31-.48.75-.48,1.32v.81c0,.61.17,1.05.48,1.36.31.31.81.44,1.49.44s1.15-.14,1.49-.44Z"/>
  <path d="M144.98,98.45c.54-.51,1.36-.78,2.47-.78h1.32l-.17,1.7h-.85c-.51,0-.85.1-1.05.31-.2.2-.3.54-.3,1.05v.31h1.93v1.63h-1.93v5.97h-2.24v-5.97h-1.22v-1.63h1.22v-.24c0-1.05.27-1.83.81-2.34Z"/>
  <path d="M156.57,98.08h-2.24v10.54h2.24v-10.54Z"/>
  <path d="M158.94,101.03h1.76l.17.98c.48-.78,1.15-1.15,2.1-1.15h1.02l-.17,1.86h-1.02c-.51,0-.92.14-1.22.44-.3.31-.44.71-.44,1.22v4.24h-2.24v-7.59h.03Z"/>
  <path d="M170.13,102.66c-.24-.17-.64-.27-1.19-.27s-.98,0-1.56.07c-.61.03-1.12.1-1.56.2l-.17-1.42c.51-.1,1.08-.17,1.73-.27.64-.07,1.22-.1,1.73-.1,1.22,0,2.14.2,2.71.68.58.47.88,1.15.88,2.1v5.02h-1.73l-.17-.88c-.44.68-1.36,1.02-2.78,1.02s-1.8-.2-2.27-.61c-.51-.41-.75-1.05-.75-1.9s.27-1.46.78-1.87c.51-.41,1.39-.58,2.61-.58h2.07v-.2c0-.47-.1-.78-.34-.95M167.52,105.34c-.2.17-.34.47-.34.88s.1.68.34.85c.24.17.58.27,1.09.27s1.02-.1,1.36-.34c.34-.24.51-.58.51-.98v-.88h-1.83c-.51,0-.88.1-1.09.27"/>
  <path d="M176.77,101.03l.13.75c.24-.31.54-.51.98-.68.44-.17.92-.24,1.49-.24,1.15,0,2,.31,2.54.88.54.58.81,1.46.81,2.61v4.27h-2.24v-4.34c0-.61-.1-1.05-.34-1.32-.24-.27-.64-.41-1.22-.41-1.15,0-1.73.47-1.73,1.42v4.61h-2.24v-7.59h1.76l.03.03Z"/>
  <path d="M247.12,21.22c-4.03-1.53-8.27-2.03-12.24-1.49v6.92c4.75-.64,9.83.2,14.58,2.47v-4.54c0-1.49-.92-2.85-2.34-3.36Z"/>
  <path d="M116.74,56.35c-4.03-1.53-8.27-2.03-12.24-1.49v6.92c4.75-.64,9.83.2,14.58,2.47v-4.54c0-1.49-.92-2.85-2.34-3.36Z"/>
</svg>